<?xml version="1.0" encoding="UTF-8" standalone="no"?><!DOCTYPE svg PUBLIC "-//W3C//DTD SVG 1.1//EN" "http://www.w3.org/Graphics/SVG/1.1/DTD/svg11.dtd"><svg width="100%" height="100%" viewBox="0 0 461 500" version="1.1" xmlns="http://www.w3.org/2000/svg" xmlns:xlink="http://www.w3.org/1999/xlink" xml:space="preserve" xmlns:serif="http://www.serif.com/" style="fill-rule:evenodd;clip-rule:evenodd;stroke-linejoin:round;stroke-miterlimit:2;"><g id="Слой_2"><g id="Слой_1-2"><g id="monitor"><path d="M295.125,336.408l-43.229,-24.997c-3.112,-1.793 -2.724,-4.94 0.862,-7.017l27.997,-16.171l54.513,31.471l-28.006,16.171c-3.578,2.112 -9.025,2.336 -12.137,0.543Z" style="fill-opacity:0.4;fill-rule:nonzero;"/><path d="M299.021,334.116l-43.22,-24.955c-3.121,-1.802 -2.724,-4.94 0.862,-7.017l28.006,-16.171l54.512,31.472l-27.997,16.162c-3.595,2.086 -9.043,2.31 -12.163,0.509Z" style="fill:#b1b4c4;fill-rule:nonzero;"/><path d="M339.19,317.445l0,-1.647l-2.517,1.448l2.517,0.199Z" style="fill:#b1b4c4;fill-rule:nonzero;"/><path d="M253.697,306.187l0,-1.672l2.586,1.068l-2.586,0.604Z" style="fill:#b1b4c4;fill-rule:nonzero;"/><path d="M299.021,332.469l-43.22,-24.955c-3.121,-1.801 -2.724,-4.948 0.862,-7.025l28.006,-16.162l54.512,31.471l-28.006,16.163c-3.586,2.077 -9.034,2.31 -12.154,0.508Z" style="fill:#d7d8e5;fill-rule:nonzero;"/><path d="M284.824,284.396l-6.749,-22.378l55.107,31.601l6.008,22.179l-54.366,-31.402Z" style="fill:#9ea1af;fill-rule:nonzero;"/><path d="M337.587,316.72l1.603,-0.922l-2.379,-1.896l0.776,2.818Z" style="fill:#9ea1af;fill-rule:nonzero;"/><path d="M283.083,285.24l-6.741,-22.386l55.107,31.61l6.138,22.256l-54.504,-31.48Z" style="fill:#b1b4c4;fill-rule:nonzero;"/><path d="M422.967,354.441l-213.3,-123.153c-2.992,-1.724 -5.414,-6.361 -5.414,-10.344l0,-165.003c0,-3.991 2.422,-5.827 5.414,-4.095l213.3,123.154c3,1.724 5.422,6.361 5.422,10.344l0,165.003c0,3.991 -2.422,5.818 -5.422,4.094Z" style="fill:#b1b4c4;fill-rule:nonzero;"/><path d="M424.071,356.139l2.362,-1.361l-1.018,-7.008l-1.344,8.369Z" style="fill:#b1b4c4;fill-rule:nonzero;"/><path d="M203.865,52.864l2.328,-1.345l3.344,1.939c0,0 -3.56,0.543 -3.646,0.526c-0.086,-0.017 -2.026,-1.12 -2.026,-1.12Z" style="fill:#b1b4c4;fill-rule:nonzero;"/><path d="M421.019,355.571l-213.309,-123.154c-2.991,-1.724 -5.414,-6.361 -5.414,-10.344l0,-165.003c0,-3.991 2.423,-5.827 5.414,-4.094l213.309,123.153c2.991,1.724 5.414,6.361 5.414,10.344l0,165.003c0,3.991 -2.423,5.819 -5.414,4.095Z" style="fill:#e4e7f2;fill-rule:nonzero;"/><path d="M426.062,186.688l0,165.021c0,3.999 -2.431,5.836 -5.422,4.094l-213.309,-123.17c-2.992,-1.724 -5.414,-6.362 -5.414,-10.344l0,-165.003c0,-3.991 2.422,-5.819 5.414,-4.095l213.309,123.153c2.991,1.724 5.422,6.362 5.422,10.344Z" style="fill:#d6d8e5;fill-rule:nonzero;"/><path d="M423.097,345.752l-218.473,-126.153l0.121,-161.65c0,-1.663 1.155,-2.327 2.586,-1.5l213.309,123.145c1.527,1.003 2.489,2.675 2.586,4.5l-0.129,161.658Z" style="fill:#fff;fill-rule:nonzero;"/><path d="M409.598,205.221l-193.682,-111.826c-1.363,-0.97 -2.184,-2.534 -2.207,-4.207l0,-13.982c0,-1.62 0.983,-2.37 2.207,-1.663l193.682,111.801c1.359,0.976 2.178,2.541 2.207,4.215l0,13.981c0,1.63 -0.992,2.388 -2.207,1.681Z" style="fill:#e9eaf2;fill-rule:nonzero;"/><path d="M219.584,82.07c1.657,-0.957 4.346,0.595 6.001,3.463c1.656,2.867 1.655,5.972 -0.001,6.928c-1.656,0.956 -4.345,-0.596 -6.001,-3.463c-1.655,-2.868 -1.655,-5.972 0.001,-6.928Z" style="fill:#dadce5;"/><path d="M323.278,147.243l-16.749,-9.68c-0.342,-0.241 -0.548,-0.633 -0.552,-1.051l0,-2.216c0,-0.413 0.242,-0.595 0.552,-0.422l16.749,9.68c0.342,0.241 0.547,0.633 0.551,1.052l0,2.215c0,0.405 -0.241,0.595 -0.551,0.422Z" style="fill:#dadce5;fill-rule:nonzero;"/><path d="M350.396,162.932l-16.749,-9.672c-0.341,-0.242 -0.546,-0.633 -0.551,-1.051l0,-2.224c0,-0.406 0.241,-0.595 0.551,-0.414l16.749,9.671c0.342,0.242 0.548,0.634 0.552,1.052l0,2.224c0,0.414 -0.259,0.552 -0.552,0.414Z" style="fill:#dadce5;fill-rule:nonzero;"/><path d="M377.075,178.301l-16.757,-9.671c-0.339,-0.249 -0.543,-0.641 -0.552,-1.061l0,-2.215c0,-0.405 0.25,-0.595 0.552,-0.422l16.757,9.68c0.342,0.241 0.547,0.633 0.551,1.051l0,2.216c0,0.414 -0.215,0.569 -0.551,0.422Z" style="fill:#dadce5;fill-rule:nonzero;"/><path d="M404.193,193.964l-16.757,-9.672c-0.338,-0.245 -0.542,-0.634 -0.552,-1.052l0,-2.206c0,-0.405 0.25,-0.595 0.552,-0.414l16.757,9.672c0.34,0.243 0.545,0.633 0.552,1.051l0,2.224c0,0.397 -0.25,0.569 -0.552,0.397Z" style="fill:#dadce5;fill-rule:nonzero;"/><path d="M394.935,239.934l-45.53,-26.291c-1.333,-0.971 -2.135,-2.515 -2.164,-4.163l0,-29.429c0,-1.621 0.983,-2.362 2.198,-1.664l45.531,26.283c1.359,0.976 2.178,2.541 2.206,4.215l0,29.377c-0.034,1.629 -1.025,2.37 -2.241,1.672Z" style="fill:#e9eaf2;fill-rule:nonzero;"/><path d="M334.966,249.476l-114.206,-65.943c-0.678,-0.487 -1.088,-1.267 -1.103,-2.103l0,-5.06c0,-0.81 0.5,-1.181 1.103,-0.862l114.206,65.934c0.681,0.485 1.092,1.268 1.104,2.104l0,5.06c-0.035,0.844 -0.492,1.215 -1.104,0.87Z" style="fill:#e9eaf2;fill-rule:nonzero;"/><path d="M323.726,254.95l-102.629,-59.262c-0.681,-0.486 -1.092,-1.268 -1.104,-2.104l0,-2.517c0,-0.81 0.492,-1.189 1.104,-0.862l102.629,59.254c0.678,0.488 1.087,1.268 1.103,2.103l0,2.517c0,0.845 -0.5,1.224 -1.103,0.871Z" style="fill:#e9eaf2;fill-rule:nonzero;"/><path d="M323.726,264.492l-102.629,-59.245c-0.682,-0.489 -1.092,-1.273 -1.104,-2.112l0,-2.517c0,-0.81 0.492,-1.181 1.104,-0.862l102.629,59.245c0.678,0.492 1.087,1.275 1.103,2.112l0,2.517c0,0.845 -0.5,1.216 -1.103,0.862Z" style="fill:#e9eaf2;fill-rule:nonzero;"/><path d="M297.487,258.898l-76.39,-44.109c-0.681,-0.485 -1.092,-1.267 -1.104,-2.103l0,-2.517c0,-0.81 0.492,-1.189 1.104,-0.862l76.39,44.134c0.686,0.481 1.098,1.266 1.103,2.104l0,2.517c0,0.81 -0.483,1.181 -1.103,0.836Z" style="fill:#e9eaf2;fill-rule:nonzero;"/><path d="M396.039,252.148l-47.729,-27.584c-0.681,-0.485 -1.091,-1.267 -1.103,-2.103l0,-2.517c0,-0.81 0.491,-1.189 1.103,-0.862l47.729,27.584c0.682,0.488 1.092,1.273 1.103,2.112l0,2.517c0,0.836 -0.491,1.207 -1.103,0.853Z" style="fill:#e9eaf2;fill-rule:nonzero;"/><path d="M396.039,261.699l-47.729,-27.584c-0.682,-0.488 -1.093,-1.273 -1.103,-2.112l0,-2.517c0,-0.81 0.491,-1.18 1.103,-0.862l47.729,27.584c0.681,0.485 1.091,1.268 1.103,2.104l0,2.517c0,0.844 -0.491,1.232 -1.103,0.87Z" style="fill:#e9eaf2;fill-rule:nonzero;"/><path d="M383.54,264.027l-35.23,-20.343c-0.681,-0.486 -1.091,-1.268 -1.103,-2.104l0,-2.517c0,-0.81 0.491,-1.189 1.103,-0.862l35.23,20.412c0.682,0.488 1.092,1.273 1.103,2.112l0,2.509c0,0.775 -0.491,1.146 -1.103,0.793Z" style="fill:#e9eaf2;fill-rule:nonzero;"/><path d="M394.935,313.505l-45.53,-26.291c-1.345,-0.98 -2.148,-2.542 -2.164,-4.206l0,-29.386c0,-1.62 0.983,-2.37 2.198,-1.663l45.531,26.282c1.359,0.977 2.178,2.542 2.206,4.215l0,29.377c-0.034,1.629 -1.025,2.37 -2.241,1.672Z" style="fill:#e9eaf2;fill-rule:nonzero;"/><path d="M396.039,325.72l-47.729,-27.584c-0.681,-0.485 -1.091,-1.267 -1.103,-2.103l0,-2.517c0,-0.811 0.491,-1.19 1.103,-0.862l47.729,27.583c0.682,0.488 1.092,1.273 1.103,2.112l0,2.517c0,0.836 -0.491,1.207 -1.103,0.854Z" style="fill:#e9eaf2;fill-rule:nonzero;"/><path d="M362.688,208.299l-3.198,-8.232l-5.818,8.275l6.387,3.689l5.25,3.034l11.705,6.758l-8.473,-21.851l-5.853,8.327Z" style="fill:#dadce5;fill-rule:nonzero;"/><path d="M383.578,204.011c1.487,-0.858 3.903,0.538 5.393,3.118c1.489,2.579 1.49,5.37 0.003,6.229c-1.488,0.858 -3.904,-0.538 -5.393,-3.118c-1.489,-2.579 -1.491,-5.37 -0.003,-6.229Z" style="fill:#dadce5;"/><path d="M363.016,282.956l-3.19,-8.232l-5.818,8.275l6.387,3.689l5.25,3.026l11.706,6.758l-8.482,-21.843l-5.853,8.327Z" style="fill:#dadce5;fill-rule:nonzero;"/><path d="M385.315,279.635c1.494,-0.859 3.916,0.547 5.405,3.138c1.489,2.591 1.485,5.392 -0.009,6.251c-1.494,0.858 -3.916,-0.548 -5.405,-3.139c-1.49,-2.591 -1.485,-5.392 0.009,-6.25Z" style="fill:#dadce5;"/><path d="M333.647,228.107l-110.645,-63.563c-1.223,-0.871 -1.96,-2.275 -1.983,-3.776l0,-51.556c0,-1.448 0.862,-2.12 1.983,-1.491l110.645,63.564c1.218,0.874 1.951,2.276 1.974,3.775l0,51.556c0,1.457 -0.887,2.129 -1.974,1.491Z" style="fill:#e9eaf2;fill-rule:nonzero;"/><path d="M253.74,163.19l-5.465,-14.076l-9.947,14.154l10.921,6.301l8.974,5.181l20.015,11.559l-14.498,-37.359l-10,14.24Z" style="fill:#dadce5;fill-rule:nonzero;"/><path d="M309.783,170.511c2.546,-1.47 6.68,0.916 9.225,5.324c2.545,4.409 2.544,9.182 -0.002,10.652c-2.546,1.47 -6.68,-0.916 -9.225,-5.324c-2.545,-4.409 -2.544,-9.182 0.002,-10.652Z" style="fill:#dadce5;"/></g><path d="M226.975,145.692l0,77.235c0,2.879 -1.724,4.206 -3.913,2.956l-21.145,-12.18l0,-87.665l21.145,12.198c2.155,1.249 3.913,4.603 3.913,7.456Z" style="fill-opacity:0.05;fill-rule:nonzero;"/><path d="M206.787,119.53l-64.96,-37.505c-0.673,-0.464 -1.527,-0.583 -2.301,-0.319c-0.176,0.071 -0.342,0.167 -0.491,0.284l-2.035,1.181l0.949,1.267l0,77.778c0,2.879 1.724,6.224 3.913,7.474l63.727,36.798l0.811,2.586l2.784,-1.56c0.14,-0.062 0.273,-0.14 0.396,-0.233c0.83,-0.779 1.254,-1.9 1.147,-3.034l0,-77.235c-0.01,-1.076 -0.262,-2.222 -0.687,-3.299c-0.71,-1.795 -1.9,-3.402 -3.253,-4.183Z" style="fill:#d7d8e5;fill-rule:nonzero;"/><path d="M204.081,208.73l-64.969,-37.506c-2.155,-1.25 -3.913,-4.594 -3.913,-7.482l0,-77.226c0,-2.879 1.724,-4.207 3.913,-2.957l64.969,37.506c2.163,1.25 3.913,4.594 3.913,7.482l0,77.226c0,2.845 -1.75,4.206 -3.913,2.957Z" style="fill:#f5f7fc;fill-rule:nonzero;"/><path d="M145.379,166.707l1.56,0.905l0,-68.692l-1.56,-0.905l0,68.692Z" style="fill:#dadce5;fill-rule:nonzero;"/><path d="M146.163,130.702c-1.692,-1.208 -2.711,-3.153 -2.741,-5.233l0,-8.059c0,-2.017 1.224,-2.94 2.741,-2.069c1.687,1.212 2.703,3.155 2.733,5.232l0,8.06c0,2.017 -1.224,2.948 -2.733,2.069Z" style="fill:#ff0080;fill-rule:nonzero;"/><path d="M162.136,176.138l1.569,0.905l0,-68.684l-1.569,-0.905l0,68.684Z" style="fill:#dadce5;fill-rule:nonzero;"/><path d="M162.921,162.734c-1.689,-1.216 -2.707,-3.161 -2.742,-5.241l0,-8.06c0,-2.017 1.233,-2.939 2.742,-2.069c1.69,1.21 2.708,3.154 2.741,5.232l0,8.06c0,2.017 -1.224,2.948 -2.741,2.078Z" style="fill:#ff0080;fill-rule:nonzero;"/><path d="M178.902,185.818l1.569,0.905l0,-68.693l-1.569,-0.905l0,68.693Z" style="fill:#dadce5;fill-rule:nonzero;"/><path d="M179.686,140.778c-1.69,-1.209 -2.708,-3.153 -2.741,-5.232l0,-8.059c0,-2.018 1.224,-2.949 2.741,-2.078c1.689,1.215 2.706,3.161 2.741,5.241l0,8.06c0,2.017 -1.232,2.939 -2.741,2.068Z" style="fill:#ff0080;fill-rule:nonzero;"/><path d="M195.668,195.498l1.56,0.896l0,-68.683l-1.56,-0.905l0,68.692Z" style="fill:#dadce5;fill-rule:nonzero;"/><path d="M196.452,168.526c-1.692,-1.208 -2.711,-3.153 -2.741,-5.232l0,-8.06c0,-2.017 1.224,-2.939 2.741,-2.069c1.687,1.212 2.702,3.156 2.733,5.233l0,8.059c0,2.017 -1.224,2.948 -2.733,2.069Z" style="fill:#ff0080;fill-rule:nonzero;"/><g id="Coin"><ellipse cx="165.567" cy="280.991" rx="23.963" ry="13.835" style="fill-opacity:0.3;"/><ellipse cx="171.497" cy="277.431" rx="23.963" ry="13.835" style="fill:#dd990e;"/><path d="M147.543,277.638l0,-6.302l4.732,4.216l-4.732,2.086Z" style="fill:#dd990e;fill-rule:nonzero;"/><path d="M195.461,271.5l0,5.931l-2.422,2.568l-1.181,-6.783l3.603,-1.716Z" style="fill:#dd990e;fill-rule:nonzero;"/><ellipse cx="171.497" cy="271.5" rx="23.963" ry="13.835" style="fill:#f9cb07;"/><path d="M188.634,271.931c-0.241,2.328 -1.905,4.629 -4.991,6.413c-6.706,3.862 -17.568,3.862 -24.265,0c-3.095,-1.784 -4.75,-4.085 -4.991,-6.413c-0.285,-2.724 1.379,-5.517 4.991,-7.594c6.697,-3.87 17.559,-3.87 24.265,0c3.603,2.077 5.267,4.87 4.991,7.594Z" style="fill:#cc8b09;fill-rule:nonzero;"/><path d="M188.634,271.931c-0.241,2.328 -1.905,4.629 -4.991,6.413c-6.706,3.862 -17.568,3.862 -24.265,0c-3.095,-1.784 -4.75,-4.085 -4.991,-6.413c0.241,-2.327 1.896,-4.629 4.991,-6.413c6.697,-3.87 17.559,-3.87 24.265,0c3.077,1.784 4.741,4.086 4.991,6.413Z" style="fill:#e8a30a;fill-rule:nonzero;"/><path d="M171.247,268.69c-0.211,-0.003 -0.421,0.014 -0.629,0.052c-0.284,0 -0.595,0.095 -0.948,0.172c-0.353,0.078 -0.715,0.164 -1.095,0.276c-0.366,0.109 -0.724,0.248 -1.069,0.414l2.75,1.586l0.5,-0.173c0.698,-0.232 1.362,-0.431 1.983,-0.594c0.583,-0.157 1.181,-0.255 1.784,-0.293c0.548,-0.038 1.1,0 1.638,0.112c0.553,0.115 1.084,0.321 1.569,0.612c0.48,0.238 0.89,0.598 1.189,1.043c0.199,0.321 0.261,0.709 0.173,1.077c-0.117,0.405 -0.34,0.771 -0.647,1.06c-0.378,0.38 -0.801,0.713 -1.258,0.992l1.724,1.008l-0.949,0.552l-1.775,-1.017c-0.828,0.413 -1.694,0.745 -2.586,0.991c-0.951,0.266 -1.923,0.448 -2.905,0.543l-0.923,-1.655c0.26,-0.005 0.519,-0.025 0.776,-0.06c0.389,-0.044 0.774,-0.11 1.155,-0.199c0.423,-0.086 0.862,-0.206 1.345,-0.344c0.461,-0.132 0.91,-0.299 1.345,-0.5l-2.741,-1.578l-0.354,0.121l-0.379,0.112c-0.622,0.211 -1.255,0.39 -1.897,0.534c-0.529,0.123 -1.069,0.195 -1.611,0.216c-0.481,0.02 -0.962,-0.024 -1.431,-0.129c-0.464,-0.113 -0.908,-0.293 -1.319,-0.535c-0.45,-0.239 -0.842,-0.574 -1.147,-0.982c-0.218,-0.313 -0.328,-0.689 -0.31,-1.069c0.04,-0.393 0.196,-0.766 0.448,-1.069c0.322,-0.389 0.7,-0.729 1.121,-1.009l-1.629,-0.939l0.956,-0.552l1.612,0.931c0.754,-0.373 1.546,-0.663 2.362,-0.862c0.78,-0.196 1.572,-0.34 2.371,-0.431l0.801,1.586Zm-4.68,2.853c0.36,0.207 0.776,0.297 1.189,0.259c0.561,-0.065 1.113,-0.189 1.647,-0.371l-2.586,-1.491c-0.94,0.655 -1.026,1.189 -0.25,1.603Zm9.042,0.75c-0.392,-0.213 -0.843,-0.292 -1.284,-0.224c-0.612,0.074 -1.215,0.207 -1.802,0.397l2.586,1.474c1.069,-0.63 1.241,-1.181 0.5,-1.612l0,-0.035Z" style="fill:#cc8b09;fill-rule:nonzero;"/><path d="M169.765,275.448l0,-0.931l1.051,0.681l-0.456,0.698l-0.595,-0.448Z" style="fill:#cc8b09;fill-rule:nonzero;"/><path d="M178.936,276.034l0,-0.931l-2.275,0.181l1.31,0.888l0.965,-0.138Z" style="fill:#cc8b09;fill-rule:nonzero;"/><path d="M179.135,272.629l0,-0.939l-1.707,0.612l1.707,0.327Z" style="fill:#cc8b09;fill-rule:nonzero;"/><path d="M172.066,272.578l0.569,-0.543l2,1.379l-0.121,0.414c0,0 -1.499,-0.63 -1.551,-0.673l-0.897,-0.577Z" style="fill:#cc8b09;fill-rule:nonzero;"/><path d="M166.825,269.647l2.655,1.508l0.543,-0.396c0,0 -0.327,-0.379 -0.353,-0.423c-0.251,-0.271 -0.542,-0.504 -0.862,-0.689c-0.198,0 -1.457,-0.604 -1.457,-0.604l-0.526,0.604Z" style="fill:#cc8b09;fill-rule:nonzero;"/><path d="M171.247,268.69l0,-0.931l-1.224,-0.396l-0.258,0.732l0.069,0.328l1.413,0.267Z" style="fill:#cc8b09;fill-rule:nonzero;"/><path d="M163.136,268.018l0,-0.931l1.414,0.155l-0.457,0.896l-0.957,-0.12Z" style="fill:#cc8b09;fill-rule:nonzero;"/><path d="M163.188,271.173l0,-0.966l1.629,0l-0.397,0.862l-0.706,0.776l-0.526,-0.672Z" style="fill:#cc8b09;fill-rule:nonzero;"/><path d="M171.247,267.759c-0.211,-0.003 -0.421,0.014 -0.629,0.052c-0.284,0.043 -0.595,0.095 -0.948,0.172c-0.353,0.078 -0.715,0.164 -1.095,0.276c-0.366,0.109 -0.724,0.248 -1.069,0.414l2.75,1.586l0.5,-0.173c0.698,-0.232 1.362,-0.431 1.983,-0.594c0.583,-0.157 1.181,-0.255 1.784,-0.293c0.548,-0.038 1.1,0 1.638,0.112c0.553,0.115 1.084,0.321 1.569,0.612c0.48,0.238 0.89,0.598 1.189,1.043c0.199,0.322 0.261,0.71 0.173,1.077c-0.117,0.405 -0.34,0.771 -0.647,1.06c-0.378,0.38 -0.801,0.713 -1.258,0.992l1.724,1.017l-0.949,0.552l-1.775,-1.026c-0.828,0.413 -1.694,0.745 -2.586,0.991c-0.951,0.266 -1.923,0.448 -2.905,0.543l-0.923,-1.655c0.26,-0.005 0.519,-0.025 0.776,-0.06c0.389,-0.044 0.774,-0.11 1.155,-0.198c0.423,-0.087 0.862,-0.207 1.345,-0.345c0.461,-0.132 0.91,-0.299 1.345,-0.5l-2.741,-1.578l-0.354,0.121l-0.379,0.112c-0.622,0.211 -1.255,0.39 -1.897,0.534c-0.528,0.127 -1.068,0.199 -1.611,0.216c-0.481,0.02 -0.962,-0.024 -1.431,-0.129c-0.464,-0.113 -0.908,-0.293 -1.319,-0.535c-0.453,-0.235 -0.845,-0.571 -1.147,-0.982c-0.217,-0.31 -0.326,-0.683 -0.31,-1.061c0.039,-0.395 0.195,-0.771 0.448,-1.077c0.322,-0.389 0.7,-0.729 1.121,-1.009l-1.629,-0.939l0.956,-0.552l1.612,0.931c0.755,-0.37 1.547,-0.659 2.362,-0.862c0.779,-0.197 1.571,-0.339 2.371,-0.422l0.801,1.577Zm-4.68,2.922c0.36,0.207 0.776,0.297 1.189,0.259c0.561,-0.065 1.113,-0.189 1.647,-0.371l-2.586,-1.491c-0.94,0.586 -1.026,1.121 -0.25,1.603Zm9.042,0.759c-0.391,-0.217 -0.842,-0.299 -1.284,-0.233c-0.611,0.078 -1.214,0.211 -1.802,0.397l2.586,1.482c1.069,-0.681 1.241,-1.258 0.5,-1.681l0,0.035Z" style="fill:#f9ca06;fill-rule:nonzero;"/></g><g id="Coin-2"><ellipse cx="173.454" cy="270.052" rx="23.963" ry="13.835" style="fill:#dd990e;"/><path d="M149.499,270.259l0,-6.301l4.733,4.215l-4.733,2.086Z" style="fill:#dd990e;fill-rule:nonzero;"/><path d="M197.418,264.121l0,5.931l-2.423,2.569l-1.181,-6.784l3.604,-1.716Z" style="fill:#dd990e;fill-rule:nonzero;"/><ellipse cx="173.454" cy="264.121" rx="23.963" ry="13.835" style="fill:#f9cb07;"/><path d="M190.582,264.552c-0.241,2.328 -1.905,4.629 -4.991,6.414c-6.706,3.861 -17.567,3.861 -24.265,0c-3.095,-1.785 -4.75,-4.086 -4.991,-6.414c-0.285,-2.723 1.379,-5.516 4.991,-7.594c6.698,-3.87 17.559,-3.87 24.265,0c3.612,2.078 5.275,4.871 4.991,7.594Z" style="fill:#cc8b09;fill-rule:nonzero;"/><path d="M190.582,264.552c-0.241,2.328 -1.905,4.629 -4.991,6.414c-6.706,3.861 -17.567,3.861 -24.265,0c-3.095,-1.785 -4.75,-4.086 -4.991,-6.414c0.241,-2.327 1.896,-4.628 4.991,-6.413c6.698,-3.87 17.559,-3.87 24.265,0c3.086,1.785 4.767,4.086 4.991,6.413Z" style="fill:#e8a30a;fill-rule:nonzero;"/><path d="M173.204,261.311c-0.211,-0.003 -0.422,0.014 -0.629,0.052c-0.285,0 -0.595,0.095 -0.948,0.172c-0.354,0.078 -0.716,0.164 -1.086,0.276c-0.37,0.108 -0.731,0.247 -1.078,0.414l2.793,1.56l0.491,-0.172c0.699,-0.233 1.362,-0.431 1.983,-0.595c0.584,-0.156 1.181,-0.254 1.784,-0.293c0.549,-0.037 1.1,0 1.638,0.112c0.553,0.115 1.084,0.322 1.569,0.612c0.48,0.239 0.89,0.598 1.189,1.043c0.203,0.32 0.266,0.71 0.173,1.078c-0.117,0.404 -0.34,0.771 -0.647,1.06c-0.378,0.38 -0.8,0.712 -1.258,0.991l1.724,1.009l-0.957,0.551l-1.724,-1.017c-0.842,0.416 -1.722,0.748 -2.629,0.992c-0.951,0.266 -1.923,0.448 -2.905,0.543l-0.965,-1.604c0.259,-0.005 0.518,-0.025 0.775,-0.06c0.389,-0.043 0.775,-0.109 1.155,-0.198c0.423,-0.087 0.862,-0.207 1.345,-0.345c0.461,-0.132 0.91,-0.299 1.345,-0.5l-2.741,-1.578l-0.354,0.121l-0.379,0.112c-0.622,0.212 -1.255,0.39 -1.896,0.535c-0.529,0.126 -1.069,0.198 -1.612,0.215c-0.481,0.02 -0.962,-0.024 -1.431,-0.129c-0.463,-0.114 -0.907,-0.294 -1.319,-0.535c-0.45,-0.238 -0.842,-0.574 -1.147,-0.982c-0.216,-0.31 -0.326,-0.683 -0.31,-1.061c0.043,-0.396 0.202,-0.771 0.457,-1.077c0.317,-0.391 0.692,-0.731 1.112,-1.009l-1.621,-0.939l0.949,-0.552l1.612,0.931c0.753,-0.373 1.545,-0.662 2.361,-0.862c0.78,-0.196 1.572,-0.34 2.371,-0.431l0.81,1.56Zm-4.68,2.888c0.36,0.207 0.775,0.297 1.189,0.259c0.561,-0.065 1.112,-0.189 1.646,-0.371l-2.586,-1.491c-0.939,0.62 -1.025,1.189 -0.249,1.603Zm9.042,0.75c-0.391,-0.215 -0.843,-0.294 -1.285,-0.224c-0.611,0.074 -1.215,0.207 -1.801,0.396l2.586,1.474c1.069,-0.663 1.224,-1.215 0.5,-1.646Z" style="fill:#cc8b09;fill-rule:nonzero;"/><path d="M171.722,268.095l0,-0.931l1.051,0.681l-0.457,0.698l-0.594,-0.448Z" style="fill:#cc8b09;fill-rule:nonzero;"/><path d="M180.902,268.656l0,-0.923l-2.285,0.173l1.311,0.887l0.974,-0.137Z" style="fill:#cc8b09;fill-rule:nonzero;"/><path d="M181.091,265.251l0,-0.94l-1.706,0.612l1.706,0.328Z" style="fill:#cc8b09;fill-rule:nonzero;"/><path d="M174.023,265.199l0.569,-0.543l2,1.379l-0.121,0.414c0,0 -1.5,-0.629 -1.543,-0.673l-0.905,-0.577Z" style="fill:#cc8b09;fill-rule:nonzero;"/><path d="M168.808,262.268l2.664,1.509l0.543,-0.397l-0.362,-0.414c-0.249,-0.277 -0.54,-0.512 -0.862,-0.698c-0.199,0 -1.457,-0.595 -1.457,-0.595l-0.526,0.595Z" style="fill:#cc8b09;fill-rule:nonzero;"/><path d="M173.204,261.311l0,-0.931l-1.215,-0.396l-0.267,0.733l0.068,0.327l1.414,0.267Z" style="fill:#cc8b09;fill-rule:nonzero;"/><path d="M165.093,260.639l0,-0.931l1.422,0.155l-0.457,0.905l-0.965,-0.129Z" style="fill:#cc8b09;fill-rule:nonzero;"/><path d="M165.153,263.785l0,-0.965l1.621,0l-0.397,0.862l-0.707,0.776l-0.517,-0.673Z" style="fill:#cc8b09;fill-rule:nonzero;"/><path d="M173.204,260.38c-0.211,-0.003 -0.422,0.015 -0.629,0.052c-0.285,0.043 -0.595,0.095 -0.948,0.173c-0.354,0.077 -0.716,0.163 -1.086,0.275c-0.37,0.108 -0.731,0.247 -1.078,0.414l2.793,1.629l0.491,-0.172c0.699,-0.233 1.362,-0.431 1.983,-0.595c0.584,-0.156 1.181,-0.254 1.784,-0.293c0.549,-0.037 1.1,0 1.638,0.112c0.553,0.115 1.084,0.322 1.569,0.612c0.48,0.239 0.89,0.598 1.189,1.043c0.202,0.321 0.265,0.71 0.173,1.078c-0.117,0.405 -0.34,0.771 -0.647,1.06c-0.386,0.369 -0.818,0.687 -1.284,0.948l1.724,1.017l-0.957,0.552l-1.724,-1.026c-0.842,0.416 -1.722,0.748 -2.629,0.991c-0.95,0.267 -1.922,0.448 -2.905,0.543l-0.922,-1.655c0.259,-0.004 0.518,-0.025 0.776,-0.06c0.388,-0.043 0.774,-0.109 1.155,-0.198c0.422,-0.086 0.862,-0.207 1.344,-0.345c0.461,-0.131 0.91,-0.299 1.345,-0.5l-2.741,-1.577l-0.354,0.12l-0.379,0.121c-0.689,0.224 -1.319,0.397 -1.896,0.526c-0.529,0.125 -1.069,0.2 -1.612,0.224c-0.481,0.013 -0.961,-0.034 -1.431,-0.138c-0.463,-0.114 -0.907,-0.294 -1.319,-0.534c-0.454,-0.233 -0.847,-0.57 -1.146,-0.983c-0.217,-0.31 -0.326,-0.683 -0.311,-1.06c0.043,-0.397 0.202,-0.772 0.457,-1.078c0.317,-0.391 0.692,-0.731 1.112,-1.008l-1.62,-0.94l0.948,-0.552l1.612,0.931c0.754,-0.369 1.546,-0.658 2.362,-0.862c0.779,-0.197 1.571,-0.338 2.37,-0.422l0.793,1.577Zm-4.68,2.888c0.36,0.207 0.775,0.297 1.189,0.259c0.561,-0.061 1.114,-0.185 1.646,-0.371l-2.586,-1.483c-0.939,0.612 -1.025,1.147 -0.249,1.595Zm9.042,0.759c-0.391,-0.218 -0.843,-0.3 -1.285,-0.233c-0.611,0.078 -1.214,0.211 -1.801,0.396l2.586,1.483c1.069,-0.672 1.224,-1.224 0.5,-1.646Z" style="fill:#f9ca06;fill-rule:nonzero;"/></g><g id="Coin-3"><ellipse cx="171.989" cy="262.949" rx="23.963" ry="13.835" style="fill:#dd990e;"/><path d="M148.025,263.156l0,-6.301l4.741,4.215l-4.741,2.086Z" style="fill:#dd990e;fill-rule:nonzero;"/><path d="M195.952,257.019l0,5.93l-2.422,2.569l-1.19,-6.784l3.612,-1.715Z" style="fill:#dd990e;fill-rule:nonzero;"/><ellipse cx="171.989" cy="257.019" rx="23.963" ry="13.835" style="fill:#f9cb07;"/><path d="M189.108,257.45c-0.241,2.327 -1.896,4.629 -4.991,6.413c-6.698,3.862 -17.559,3.862 -24.265,0c-3.086,-1.784 -4.75,-4.086 -4.983,-6.413c-0.293,-2.724 1.371,-5.517 4.983,-7.595c6.706,-3.87 17.567,-3.87 24.265,0c3.655,2.078 5.275,4.871 4.991,7.595Z" style="fill:#cc8b09;fill-rule:nonzero;"/><path d="M189.108,257.45c-0.241,2.327 -1.896,4.629 -4.991,6.413c-6.698,3.862 -17.559,3.862 -24.265,0c-3.086,-1.784 -4.75,-4.086 -4.983,-6.413c0.233,-2.328 1.897,-4.629 4.983,-6.414c6.706,-3.87 17.567,-3.87 24.265,0c3.095,1.785 4.75,4.129 4.991,6.414Z" style="fill:#e8a30a;fill-rule:nonzero;"/><path d="M171.739,254.208c-0.211,-0.003 -0.422,0.014 -0.63,0.052c-0.284,0 -0.603,0.095 -0.948,0.173c-0.345,0.077 -0.715,0.163 -1.094,0.275c-0.37,0.11 -0.73,0.248 -1.078,0.414l2.758,1.586l0.492,-0.172c0.707,-0.233 1.362,-0.431 1.982,-0.595c0.584,-0.156 1.182,-0.254 1.785,-0.293c0.551,-0.037 1.105,0 1.646,0.112c0.553,0.117 1.083,0.324 1.569,0.612c0.476,0.241 0.883,0.6 1.181,1.043c0.201,0.321 0.266,0.709 0.181,1.078c-0.124,0.401 -0.346,0.766 -0.647,1.06c-0.38,0.378 -0.802,0.71 -1.258,0.991l1.724,1.009l-0.957,0.551l-1.767,-1.017c-0.827,0.415 -1.694,0.747 -2.586,0.992c-0.948,0.265 -1.917,0.447 -2.896,0.543l-0.923,-1.655c0.257,-0.006 0.513,-0.026 0.768,-0.061c0.388,-0.043 0.774,-0.109 1.155,-0.198c0.431,-0.086 0.862,-0.207 1.344,-0.345c0.463,-0.133 0.916,-0.3 1.354,-0.5l-2.741,-1.577l-0.363,0.12l-0.37,0.112c-0.623,0.211 -1.256,0.389 -1.897,0.535c-0.532,0.122 -1.074,0.194 -1.62,0.215c-0.478,0.02 -0.956,-0.024 -1.422,-0.129c-0.464,-0.111 -0.909,-0.291 -1.319,-0.534c-0.45,-0.239 -0.842,-0.575 -1.147,-0.983c-0.226,-0.306 -0.339,-0.681 -0.319,-1.06c0.045,-0.396 0.204,-0.77 0.457,-1.078c0.317,-0.391 0.692,-0.731 1.112,-1.008l-1.629,-0.94l0.957,-0.552l1.612,0.931c0.752,-0.375 1.544,-0.664 2.362,-0.862c0.776,-0.195 1.566,-0.339 2.361,-0.431l0.811,1.586Zm-4.655,2.888c0.363,0.207 0.782,0.298 1.198,0.259c0.558,-0.065 1.107,-0.189 1.638,-0.371l-2.586,-1.491c-0.965,0.621 -1.049,1.155 -0.25,1.603Zm9.051,0.75c-0.395,-0.214 -0.849,-0.293 -1.293,-0.224c-0.612,0.075 -1.215,0.208 -1.802,0.397l2.586,1.474c1.043,-0.664 1.216,-1.216 0.474,-1.647l0.035,0Z" style="fill:#cc8b09;fill-rule:nonzero;"/><path d="M170.256,260.967l0,-0.931l1.052,0.681l-0.457,0.698l-0.595,-0.448Z" style="fill:#cc8b09;fill-rule:nonzero;"/><path d="M179.428,261.553l0,-0.931l-2.276,0.181l1.302,0.888l0.974,-0.138Z" style="fill:#cc8b09;fill-rule:nonzero;"/><path d="M179.617,258.148l0,-0.94l-1.706,0.612l1.706,0.328Z" style="fill:#cc8b09;fill-rule:nonzero;"/><path d="M172.549,258.096l0.569,-0.543l2.008,1.379l-0.129,0.414c0,0 -1.491,-0.629 -1.543,-0.672l-0.905,-0.578Z" style="fill:#cc8b09;fill-rule:nonzero;"/><path d="M167.317,255.165l2.655,1.509l0.543,-0.397l-0.362,-0.413c-0.247,-0.28 -0.538,-0.516 -0.862,-0.699c-0.19,0 -1.457,-0.603 -1.457,-0.603l-0.517,0.603Z" style="fill:#cc8b09;fill-rule:nonzero;"/><path d="M171.739,254.208l0,-0.93l-1.224,-0.397l-0.259,0.733l0.06,0.327l1.423,0.267Z" style="fill:#cc8b09;fill-rule:nonzero;"/><path d="M163.627,253.536l0,-0.931l1.414,0.155l-0.457,0.897l-0.957,-0.121Z" style="fill:#cc8b09;fill-rule:nonzero;"/><path d="M163.679,256.691l0,-0.965l1.621,0l-0.397,0.862l-0.698,0.775l-0.526,-0.672Z" style="fill:#cc8b09;fill-rule:nonzero;"/><path d="M171.739,253.278c-0.211,-0.004 -0.422,0.013 -0.63,0.051c-0.284,0 -0.603,0.095 -0.948,0.173c-0.345,0.077 -0.715,0.163 -1.094,0.275c-0.37,0.11 -0.73,0.248 -1.078,0.414l2.758,1.586l0.492,-0.172c0.707,-0.233 1.362,-0.431 1.982,-0.595c0.584,-0.156 1.182,-0.254 1.785,-0.293c0.551,-0.037 1.105,0.001 1.646,0.112c0.553,0.117 1.083,0.324 1.569,0.612c0.476,0.241 0.883,0.6 1.181,1.043c0.2,0.321 0.265,0.709 0.181,1.078c-0.124,0.402 -0.346,0.766 -0.647,1.06c-0.377,0.38 -0.8,0.713 -1.258,0.991l1.724,1.017l-0.957,0.552l-1.767,-1.026c-0.827,0.415 -1.694,0.747 -2.586,0.992c-0.948,0.265 -1.917,0.447 -2.896,0.543l-0.923,-1.655c0.257,-0.006 0.513,-0.026 0.768,-0.061c0.388,-0.043 0.774,-0.109 1.155,-0.198c0.431,-0.086 0.862,-0.207 1.344,-0.345c0.463,-0.133 0.916,-0.3 1.354,-0.5l-2.741,-1.577l-0.363,0.12l-0.37,0.113c-0.623,0.21 -1.256,0.388 -1.897,0.534c-0.531,0.126 -1.074,0.199 -1.62,0.215c-0.478,0.02 -0.956,-0.024 -1.422,-0.129c-0.464,-0.111 -0.909,-0.291 -1.319,-0.534c-0.453,-0.236 -0.845,-0.572 -1.147,-0.983c-0.226,-0.306 -0.339,-0.681 -0.319,-1.06c0.047,-0.396 0.205,-0.77 0.457,-1.078c0.317,-0.391 0.692,-0.731 1.112,-1.008l-1.629,-0.966l0.957,-0.551l1.612,0.931c0.754,-0.372 1.546,-0.66 2.362,-0.862c0.776,-0.198 1.565,-0.339 2.361,-0.423l0.811,1.604Zm-4.655,2.887c0.363,0.208 0.782,0.298 1.198,0.259c0.558,-0.065 1.107,-0.189 1.638,-0.371l-2.586,-1.491c-0.965,0.621 -1.049,1.155 -0.25,1.603Zm9.051,0.759c-0.394,-0.217 -0.848,-0.299 -1.293,-0.233c-0.611,0.079 -1.214,0.212 -1.802,0.397l2.586,1.482c1.043,-0.672 1.216,-1.224 0.474,-1.681l0.035,0.035Z" style="fill:#f9ca06;fill-rule:nonzero;"/></g><g id="Girl_12"><path id="_Контур_" d="M271.954,35.641c0.733,-1.147 6.327,-1.957 8.198,2.801c0.707,1.811 0.595,6.422 1.181,9.319c0.586,2.896 1.965,4.542 2.465,6.895c0.5,2.354 -0.31,6.293 -5.982,6.991c-5.672,0.698 -10.025,-1.293 -11.37,-3.103c-1.344,-1.81 -1.362,-5.646 0,-7.706c1.362,-2.06 2.448,-3.741 2.414,-6.431l3.094,-8.766Z" style="fill:#3a2c6d;fill-rule:nonzero;"/><path id="_Контур_2_" serif:id="_Контур_2" d="M275.695,34.822c0,0 -4.266,-1.19 -6.835,1.06c-1.713,1.595 -2.402,4.018 -1.785,6.276c0.337,1.336 1.026,3.154 2.087,3.258c1.06,0.103 6.533,-10.594 6.533,-10.594Z" style="fill:#3a2c6d;fill-rule:nonzero;"/><path id="_Контур_3_" serif:id="_Контур_3" d="M277.282,46.355c0,0 -0.285,4.716 -0.199,5.069c0.086,0.353 1.854,0.681 2.353,1.095c0.5,0.413 -2.585,5.172 -4.12,5.896c-1.534,0.724 -6.379,-1.095 -6.706,-3.491c-0.31,-2.207 1.379,-3.922 2.026,-4.526c0.442,-0.023 0.885,-0.023 1.327,0l0.138,-2.284c2.112,-0.69 5.181,-1.759 5.181,-1.759Z" style="fill:#ffcea9;fill-rule:nonzero;"/><path id="_Контур_4_" serif:id="_Контур_4" d="M263.403,71.56c-1.334,1.837 -2.915,3.482 -4.698,4.888c-0.566,0.589 -1.101,1.207 -1.603,1.853c-0.842,0.971 -1.933,1.696 -3.155,2.095c-1.069,0.276 -1.517,0.207 -1.724,0c-0.207,-0.207 -0.095,-0.5 0.362,-0.681c0.757,-0.233 1.461,-0.614 2.069,-1.121c0.609,-0.507 -0.991,0.466 -1.612,0.681c-0.556,0.194 -1.136,0.31 -1.724,0.345c-0.586,0 -1.198,-0.681 -0.733,-0.862c0.466,-0.181 0.862,-0.224 1.802,-0.56c0.486,-0.172 0.947,-0.406 1.371,-0.699c-0.638,0.183 -1.29,0.316 -1.948,0.397c-0.548,0.089 -1.109,0.024 -1.621,-0.19c-0.276,-0.112 -0.509,-0.612 0.103,-0.776c0.799,-0.079 1.585,-0.261 2.336,-0.543c0.725,-0.327 1.173,-0.672 1.018,-0.741c-0.156,-0.069 -0.569,0.155 -1.293,0.104c-0.724,-0.052 -1.397,-0.518 -1.388,-0.862c0.008,-0.345 0.155,-0.173 0.862,-0.233c0.759,-0.227 1.534,-0.397 2.319,-0.509c0.756,0.029 1.512,-0.061 2.241,-0.267c0.776,-0.233 2.491,-2.302 3.818,-4.198c1.437,-2.114 2.575,-4.418 3.379,-6.844c0.793,-2.586 1.724,-7.5 2.414,-9.198c0.69,-1.698 1.836,-2.474 2.948,-2.508c1.302,0 1.853,1.672 1.509,3.146c-0.63,2.629 -3.517,12.611 -7.052,17.283Z" style="fill:#ffcea9;fill-rule:nonzero;"/><path id="_Контур_5_" serif:id="_Контур_5" d="M277.928,51.881c1.319,0.198 2.836,0.914 3.043,1.638c0.545,2.612 0.415,5.322 -0.379,7.87c-1.147,3.034 -2.44,8.508 -3.104,9.818c-3.412,0.476 -6.888,-0.204 -9.869,-1.931c-2.982,-1.727 -0.276,-5.275 -0.302,-7.017c-4.258,-3.724 -0.612,-8.309 3,-11.878c0.433,-0.034 0.868,-0.034 1.301,0c0.433,0.034 -3.224,3.819 -0.982,5.982c4.801,-1.465 5.758,-3.629 7.292,-4.482Z" style="fill:#f4f4f4;fill-rule:nonzero;"/><path id="_Контур_6_" serif:id="_Контур_6" d="M268.472,40.528c0.474,-3.025 2.663,-5.31 5.784,-5.128c3.144,0.219 5.614,2.867 5.614,6.019c0,1.974 -0.968,3.827 -2.588,4.954c-0.109,0.459 -0.271,0.905 -0.483,1.327c-1.112,1.293 -4.052,2.103 -5.017,2.121c-0.965,0.017 -1.56,-0.776 -2.353,-2.078c-1.638,-2.724 -1.224,-5.732 -0.957,-7.215Z" style="fill:#ffcea9;fill-rule:nonzero;"/><path d="M275.23,35.434c2.189,0.431 3.991,1.043 4.586,3.198c0.405,1.483 0.939,4.31 0.431,5.5l-0.311,0.862l-2.654,1.361c0,0 -1.242,-1.025 -0.862,-4.051c-0.012,-0.41 -0.141,-0.807 -0.371,-1.146c-0.166,-0.284 -0.285,-0.593 -0.354,-0.914c-0.317,-0.817 -0.933,-1.483 -1.724,-1.862c-1.695,-0.751 -3.65,-0.658 -5.266,0.25c1.138,-2.468 3.877,-3.81 6.525,-3.198Z" style="fill:#3a2c6d;fill-rule:nonzero;"/><path d="M263.162,107.954c-1.112,0.862 -2.836,0.276 -2.922,0.362c-1.297,1.106 -2.652,2.142 -4.06,3.103c-0.69,0.543 -1.767,1.267 -1.578,2.319c0.354,1.862 3.345,1.293 4.474,0.715c1.129,-0.577 2.052,-1.517 3.121,-2.181c0.758,-0.474 1.508,-0.715 1.629,-1.724c-0.028,-0.903 -0.255,-1.789 -0.664,-2.594Z" style="fill:#38226d;fill-rule:nonzero;"/><path d="M263.809,110.203c-0.147,0.923 -0.862,1.173 -1.647,1.647c-1.077,0.672 -2.034,1.646 -3.163,2.215c-1.13,0.569 -3.647,1.052 -4.379,-0.276c0.396,1.802 3.336,1.233 4.456,0.664c1.121,-0.569 2.052,-1.517 3.121,-2.181c0.758,-0.474 1.508,-0.715 1.629,-1.724c0.003,-0.115 -0.003,-0.23 -0.017,-0.345Z" style="fill:#9c73ff;fill-rule:nonzero;"/><path d="M257.757,104.919c-1.017,0.862 -2.586,0.362 -2.629,0.44c-1.182,1.014 -2.422,1.959 -3.715,2.827c-0.629,0.5 -1.621,1.173 -1.44,2.13c0.319,1.724 3.061,1.18 4.095,0.655c1.034,-0.526 1.879,-1.388 2.853,-2c0.698,-0.431 1.388,-0.655 1.5,-1.535c-0.035,-0.877 -0.262,-1.736 -0.664,-2.517Z" style="fill:#38226d;fill-rule:nonzero;"/><path d="M258.404,107.083c-0.129,0.862 -0.81,1.078 -1.5,1.5c-1,0.621 -1.871,1.508 -2.905,2.034c-1.034,0.526 -3.336,0.966 -4.008,-0.258c0.362,1.655 3.051,1.129 4.077,0.612c1.026,-0.518 1.879,-1.388 2.853,-2c0.698,-0.431 1.388,-0.655 1.5,-1.535c0.006,-0.118 0,-0.236 -0.017,-0.353Z" style="fill:#9c73ff;fill-rule:nonzero;"/><path d="M273.109,72.37c-3.009,0.397 -6.069,-0.045 -8.844,-1.275c0.052,0.931 0.104,1.724 0.104,1.724c-3.595,2.586 -10.818,6.827 -11.284,9.775c0.466,9.327 1.888,22.653 2.293,22.851c1.129,0.535 1.914,0.449 2.448,-0.095c0,0 2.267,-7.904 1.604,-19.498c0,0 12.585,-5.568 13.404,-8.62c0.368,-1.228 0.485,-2.518 0.344,-3.793c0,-0.327 -0.025,-0.698 -0.069,-1.069Z" style="fill:#ffcea9;fill-rule:nonzero;"/><path d="M277.29,71.155c-2.389,1.075 -5.041,1.429 -7.629,1.017c0,1.25 0.173,3.595 0.173,3.595c-3.595,2.543 -10.81,6.827 -11.284,9.775c0.474,9.335 1.345,22.843 1.724,23.015c0.987,0.413 2.12,0.279 2.983,-0.353c0.862,-0.632 2.267,-7.801 1.612,-19.395c0,-0.224 10.783,-5.534 12.145,-6.896c1.362,-1.362 1.638,-3.491 1.604,-5.474c-0.075,-1.834 -0.527,-3.633 -1.328,-5.284Z" style="fill:#ffcea9;fill-rule:nonzero;"/><path d="M279.936,73.138c0,0 3.983,7.059 -2.663,10.688c-7.017,3.836 -11.284,4.733 -11.284,4.733l-1.051,0.25c0.332,2.434 0.332,4.901 0,7.335c-0.332,2.434 -5.008,1.724 -11.387,-3.87l-2.112,-6.81l-0.267,-1.836c-0.251,-1.253 0.148,-2.552 1.06,-3.448c1.534,-1.388 6.387,-4.939 9.404,-6.973c3.017,-2.035 5.431,-3.983 5.431,-3.983l0.526,-0.491c0,0 3.577,2.853 10.12,1.896c0.87,0.712 1.621,1.559 2.223,2.509Z" style="fill:#2083cf;fill-rule:nonzero;"/><path id="_Контур_7_" serif:id="_Контур_7" d="M275.98,83.628c0.61,-0.55 1.255,-1.059 1.931,-1.526c0.715,-0.358 1.369,-0.827 1.939,-1.387c0.612,-0.612 1.517,-3.173 1.991,-5.672c0.431,-2.798 0.381,-5.649 -0.146,-8.431c-0.826,-3.326 -1.942,-6.574 -3.336,-9.706c-0.862,-1.879 -0.388,-3.017 0.422,-3.853c0.949,-0.974 1.94,-0.948 3.069,1.672c1.591,3.662 2.768,7.49 3.508,11.413c0.455,2.859 0.415,5.775 -0.12,8.62c-0.469,2.488 -1.236,4.911 -2.285,7.215c-0.293,0.672 -0.344,1.241 -0.749,2.586c-0.385,1.355 -1.092,2.597 -2.061,3.62c-0.862,0.802 -1.301,0.957 -1.543,0.862c-0.241,-0.094 -0.275,-0.439 0.078,-0.862c0.602,-0.613 1.093,-1.328 1.448,-2.111c0.356,-0.784 -0.724,0.939 -1.207,1.465c-0.43,0.468 -0.923,0.874 -1.465,1.207c-0.526,0.319 -1.353,-0.052 -1.009,-0.474c0.345,-0.423 0.724,-0.664 1.431,-1.448c0.38,-0.416 0.707,-0.876 0.974,-1.371c-0.502,0.5 -1.044,0.959 -1.62,1.371c-0.446,0.356 -0.984,0.578 -1.552,0.637c-0.293,0 -0.698,-0.344 -0.207,-0.81c0.709,-0.494 1.355,-1.073 1.923,-1.724c0.534,-0.681 0.81,-1.232 0.637,-1.224c-0.172,0.009 -0.456,0.44 -1.137,0.75c-0.681,0.31 -1.474,0.207 -1.612,-0.172c-0.138,-0.38 0.077,-0.242 0.698,-0.647Z" style="fill:#ffcea9;fill-rule:nonzero;"/><path d="M283.591,58.251c0,0 -2.413,2.146 -5.103,1.724l-1.069,-4.517c0,0 -0.706,-2.37 1.319,-3.267c2.026,-0.896 3.983,1.457 4.853,6.06Z" style="fill:#ededed;fill-rule:nonzero;"/><path d="M270.317,50.381c0,0 -2.586,-0.793 -5.397,5l1.035,0.629c1.298,-1.992 2.757,-3.875 4.362,-5.629Z" style="fill:#ededed;fill-rule:nonzero;"/><g id="_Группа_"><g id="_Группа_2_" serif:id="_Группа_2"><path id="_Контур_8_" serif:id="_Контур_8" d="M252.241,75.396l9.326,-5.379c0.165,-0.095 0.37,-0.095 0.535,0l16.378,9.439l-9.594,5.543l-16.645,-9.603Z" style="fill:#f4f4f4;fill-rule:nonzero;"/><path d="M269.11,82.87l0.715,0.405c0.061,0 0.052,0.095 0,0.138l-0.681,0.388c-0.069,0.038 -0.154,0.038 -0.224,0l-0.715,-0.414c-0.061,0 -0.052,-0.086 0,-0.129l0.681,-0.388c0.069,-0.039 0.154,-0.039 0.224,0Z" style="fill:#3a2c6d;fill-rule:nonzero;"/><path d="M268.101,82.283l0.716,0.414c0.06,0 0.051,0.086 0,0.13l-0.681,0.396c-0.071,0.034 -0.154,0.034 -0.224,0l-0.716,-0.414c-0.06,0 -0.052,-0.095 0,-0.129l0.681,-0.397c0.071,-0.034 0.153,-0.034 0.224,0Z" style="fill:#3a2c6d;fill-rule:nonzero;"/><path d="M267.075,81.697l0.707,0.405c0.061,0 0.052,0.095 0,0.138l-0.681,0.388c-0.069,0.039 -0.154,0.039 -0.224,0l-0.715,-0.414c-0.052,0 -0.052,-0.086 0,-0.129l0.681,-0.388c0.073,-0.038 0.16,-0.038 0.232,0Z" style="fill:#3a2c6d;fill-rule:nonzero;"/><path d="M266.084,81.12l0.716,0.414c0.051,0 0.043,0.086 0,0.129l-0.681,0.388c-0.073,0.038 -0.16,0.038 -0.233,0l-0.707,-0.405c-0.06,0 -0.052,-0.095 0,-0.138l0.681,-0.388c0.071,-0.036 0.154,-0.036 0.224,0Z" style="fill:#3a2c6d;fill-rule:nonzero;"/><path d="M265.076,80.534l0.706,0.413c0.061,0 0.052,0.095 0,0.13l-0.68,0.396c-0.074,0.034 -0.159,0.034 -0.233,0l-0.724,-0.431c-0.052,0 -0.043,-0.095 0,-0.129l0.681,-0.397c0.081,-0.034 0.174,-0.028 0.25,0.018Z" style="fill:#3a2c6d;fill-rule:nonzero;"/><path d="M264.067,79.956l0.707,0.405c0.06,0 0.052,0.095 0,0.129l-0.681,0.397c-0.07,0.038 -0.154,0.038 -0.224,0l-0.716,-0.414c-0.051,0 -0.051,-0.086 0,-0.129l0.681,-0.388c0.073,-0.038 0.16,-0.038 0.233,0Z" style="fill:#3a2c6d;fill-rule:nonzero;"/><path d="M263.05,79.37l0.715,0.414c0.061,0 0.052,0.086 0,0.129l-0.681,0.388c-0.07,0.034 -0.153,0.034 -0.224,0l-0.715,-0.414c-0.052,0 -0.052,-0.095 0,-0.129l0.681,-0.397c0.071,-0.035 0.156,-0.032 0.224,0.009Z" style="fill:#3a2c6d;fill-rule:nonzero;"/><path d="M262.041,78.784l0.716,0.414c0.06,0 0.052,0.094 0,0.129l-0.681,0.396c-0.071,0.034 -0.153,0.034 -0.224,0l-0.716,-0.413c-0.06,0 -0.051,-0.095 0,-0.13l0.681,-0.396c0.071,-0.034 0.154,-0.034 0.224,0Z" style="fill:#3a2c6d;fill-rule:nonzero;"/><path d="M261.042,78.206l0.715,0.405c0.06,0 0.052,0.095 0,0.138l-0.681,0.388c-0.07,0.038 -0.154,0.038 -0.224,0l-0.716,-0.405c-0.06,0 -0.051,-0.095 0,-0.138l0.681,-0.388c0.07,-0.038 0.155,-0.038 0.225,0Z" style="fill:#3a2c6d;fill-rule:nonzero;"/><path d="M260.024,77.594l0.716,0.414c0.06,0 0.052,0.095 0,0.129l-0.681,0.397c-0.071,0.034 -0.154,0.034 -0.224,0l-0.716,-0.414c-0.06,0 -0.051,-0.095 0,-0.129l0.681,-0.397c0.071,-0.034 0.154,-0.034 0.224,0Z" style="fill:#3a2c6d;fill-rule:nonzero;"/><path d="M259.016,77.034l0.715,0.414c0.052,0 0.052,0.094 0,0.129l-0.681,0.396c-0.07,0.035 -0.153,0.035 -0.224,0l-0.715,-0.413c-0.061,0 -0.052,-0.086 0,-0.13l0.681,-0.387c0.069,-0.037 0.152,-0.04 0.224,-0.009Z" style="fill:#3a2c6d;fill-rule:nonzero;"/><path d="M258.007,76.456l0.716,0.414c0.051,0 0.043,0.086 0,0.129l-0.681,0.388c-0.073,0.039 -0.16,0.039 -0.233,0l-0.707,-0.405c-0.06,0 -0.052,-0.095 0,-0.138l0.673,-0.388c0.072,-0.038 0.159,-0.038 0.232,0Z" style="fill:#3a2c6d;fill-rule:nonzero;"/><path d="M256.999,75.87l0.707,0.414c0.06,0 0.051,0.095 0,0.129l-0.681,0.397c-0.074,0.034 -0.159,0.034 -0.233,0l-0.707,-0.414c-0.06,0 -0.052,-0.095 0,-0.129l0.647,-0.397c0.083,-0.046 0.184,-0.046 0.267,0Z" style="fill:#3a2c6d;fill-rule:nonzero;"/><path d="M255.499,75.008l1.198,0.69c0.06,0 0.052,0.095 0,0.138l-0.681,0.388c-0.07,0.038 -0.154,0.038 -0.224,0l-1.198,-0.69c-0.061,0 -0.052,-0.095 0,-0.129l0.681,-0.397c0.071,-0.034 0.153,-0.034 0.224,0Z" style="fill:#3a2c6d;fill-rule:nonzero;"/><path d="M268.593,81.439l0.715,0.413c0.052,0 0.052,0.087 0,0.13l-0.681,0.388c-0.073,0.038 -0.16,0.038 -0.233,0l-0.707,-0.405c-0.06,0 -0.051,-0.095 0,-0.138l0.681,-0.388c0.07,-0.039 0.155,-0.039 0.225,0Z" style="fill:#3a2c6d;fill-rule:nonzero;"/><path d="M267.584,80.853l0.707,0.413c0.06,0 0.052,0.086 0,0.13l-0.681,0.396c-0.071,0.034 -0.153,0.034 -0.224,0l-0.716,-0.414c-0.051,0 -0.043,-0.094 0,-0.129l0.681,-0.396c0.074,-0.035 0.159,-0.035 0.233,0Z" style="fill:#3a2c6d;fill-rule:nonzero;"/><path d="M266.567,80.266l0.715,0.414c0.061,0 0.052,0.095 0,0.129l-0.681,0.397c-0.07,0.034 -0.153,0.034 -0.224,0l-0.715,-0.414c-0.061,0 -0.052,-0.095 0,-0.129l0.681,-0.397c0.071,-0.034 0.153,-0.034 0.224,0Z" style="fill:#3a2c6d;fill-rule:nonzero;"/><path d="M265.558,79.689l0.716,0.405c0.052,0 0.052,0.095 0,0.138l-0.681,0.388c-0.07,0.038 -0.155,0.038 -0.224,0l-0.716,-0.414c-0.06,0 -0.051,-0.086 0,-0.129l0.681,-0.388c0.07,-0.038 0.155,-0.038 0.224,0Z" style="fill:#3a2c6d;fill-rule:nonzero;"/><path d="M264.558,79.103l0.707,0.413c0.061,0 0.052,0.095 0,0.13l-0.681,0.396c-0.07,0.034 -0.153,0.034 -0.224,0l-0.715,-0.413c-0.052,0 -0.043,-0.087 0,-0.13l0.681,-0.396c0.073,-0.035 0.159,-0.035 0.232,0Z" style="fill:#3a2c6d;fill-rule:nonzero;"/><path d="M263.541,78.525l0.716,0.405c0.06,0 0.051,0.095 0,0.138l-0.681,0.388c-0.07,0.038 -0.155,0.038 -0.224,0l-0.716,-0.405c-0.06,0 -0.052,-0.095 0,-0.138l0.681,-0.388c0.07,-0.038 0.155,-0.038 0.224,0Z" style="fill:#3a2c6d;fill-rule:nonzero;"/><path d="M262.533,77.939l0.715,0.414c0.052,0 0.052,0.086 0,0.129l-0.681,0.388c-0.071,0.034 -0.153,0.034 -0.224,0l-0.715,-0.414c-0.061,0 -0.052,-0.095 0,-0.129l0.681,-0.397c0.071,-0.035 0.156,-0.032 0.224,0.009Z" style="fill:#3a2c6d;fill-rule:nonzero;"/><path d="M261.524,77.353l0.707,0.414c0.06,0 0.052,0.094 0,0.129l-0.672,0.396c-0.074,0.035 -0.159,0.035 -0.233,0l-0.715,-0.413c-0.052,0 -0.044,-0.095 0,-0.13l0.68,-0.396c0.074,-0.034 0.159,-0.034 0.233,0Z" style="fill:#3a2c6d;fill-rule:nonzero;"/><path d="M260.507,76.732l0.716,0.414c0.06,0 0.051,0.095 0,0.129l-0.681,0.397c-0.071,0.034 -0.154,0.034 -0.225,0l-0.715,-0.414c-0.06,0 -0.052,-0.086 0,-0.129l0.681,-0.388c0.069,-0.037 0.152,-0.04 0.224,-0.009Z" style="fill:#3a2c6d;fill-rule:nonzero;"/><path d="M259.499,76.189l0.715,0.405c0.052,0 0.052,0.095 0,0.138l-0.681,0.388c-0.07,0.038 -0.154,0.038 -0.224,0l-0.716,-0.405c-0.06,0 -0.051,-0.095 0,-0.138l0.681,-0.388c0.07,-0.038 0.155,-0.038 0.225,0Z" style="fill:#3a2c6d;fill-rule:nonzero;"/><path d="M258.456,75.603l0.706,0.414c0.061,0 0.052,0.086 0,0.129l-0.672,0.397c-0.075,0.03 -0.158,0.03 -0.233,0l-0.715,-0.414c-0.052,0 0,-0.095 0,-0.13l0.681,-0.396c0.074,-0.034 0.159,-0.034 0.233,0Z" style="fill:#3a2c6d;fill-rule:nonzero;"/><path d="M257.473,75.008l0.715,0.414c0.061,0 0.052,0.095 0,0.129l-0.681,0.397c-0.07,0.034 -0.153,0.034 -0.224,0l-0.715,-0.414c-0.061,0 -0.052,-0.095 0,-0.129l0.681,-0.397c0.071,-0.034 0.153,-0.034 0.224,0Z" style="fill:#3a2c6d;fill-rule:nonzero;"/><path d="M269.601,82.016l1.198,0.698c0.061,0 0.052,0.095 0,0.13l-0.672,0.396c-0.074,0.035 -0.159,0.035 -0.233,0l-1.198,-0.698c-0.06,0 -0.052,-0.086 0,-0.129l0.681,-0.388c0.069,-0.037 0.152,-0.04 0.224,-0.009Z" style="fill:#3a2c6d;fill-rule:nonzero;"/><path d="M255.551,75.008l0.715,0.405c0.064,0.036 0.143,0.036 0.207,0l0.724,-0.413c0.022,-0.013 0.036,-0.036 0.036,-0.061c0,-0.025 -0.014,-0.048 -0.036,-0.06l-0.06,0c-0.052,0 -0.052,-0.078 0,-0.112l0.758,-0.44c0.061,0 0.061,-0.086 0,-0.12l-0.448,-0.259c-0.068,-0.034 -0.148,-0.034 -0.216,0l-0.706,0.405l-0.147,0.086l-0.112,0.061l-0.103,0.06l-0.612,0.353c-0.025,0.027 -0.025,0.069 0,0.095Z" style="fill:#3a2c6d;fill-rule:nonzero;"/><path d="M273.023,80.603l0.707,0.413c0.06,0 0.052,0.095 0,0.13l-0.681,0.396c-0.074,0.034 -0.159,0.034 -0.233,0l-0.706,-0.414c-0.061,0 -0.052,-0.094 0,-0.129l0.681,-0.396c0.073,-0.035 0.159,-0.035 0.232,0Z" style="fill:#3a2c6d;fill-rule:nonzero;"/><path d="M272.015,80.025l0.715,0.414c0.052,0 0.052,0.086 0,0.129l-0.681,0.388c-0.07,0.038 -0.154,0.038 -0.224,0l-0.715,-0.405c-0.061,0 -0.052,-0.095 0,-0.138l0.681,-0.388c0.069,-0.038 0.154,-0.038 0.224,0Z" style="fill:#3a2c6d;fill-rule:nonzero;"/><path d="M271.006,79.439l0.716,0.414c0.06,0 0.051,0.094 0,0.129l-0.681,0.396c-0.071,0.034 -0.154,0.034 -0.224,0l-0.716,-0.413c-0.06,0 -0.052,-0.095 0,-0.13l0.681,-0.396c0.071,-0.034 0.153,-0.034 0.224,0Z" style="fill:#3a2c6d;fill-rule:nonzero;"/><path d="M262.438,74.491l0.707,0.414c0.06,0 0.051,0.095 0,0.129l-0.673,0.397c-0.073,0.034 -0.159,0.034 -0.232,0l-0.716,-0.414c-0.051,0 -0.043,-0.095 0,-0.129l0.681,-0.397c0.074,-0.034 0.159,-0.034 0.233,0Z" style="fill:#3a2c6d;fill-rule:nonzero;"/><path d="M261.429,73.913l0.716,0.406c0.052,0 0.043,0.094 0,0.138l-0.681,0.387c-0.073,0.039 -0.16,0.039 -0.233,0l-0.707,-0.405c-0.06,0 -0.051,-0.095 0,-0.138l0.673,-0.388c0.072,-0.038 0.16,-0.038 0.232,0Z" style="fill:#3a2c6d;fill-rule:nonzero;"/><path d="M260.421,73.327l0.715,0.414c0.061,0 0.052,0.095 0,0.129l-0.681,0.397c-0.07,0.034 -0.153,0.034 -0.224,0l-0.715,-0.414c-0.061,0 -0.052,-0.095 0,-0.129l0.681,-0.397c0.071,-0.034 0.153,-0.034 0.224,0Z" style="fill:#3a2c6d;fill-rule:nonzero;"/><path d="M259.412,72.75l0.716,0.414c0.06,0 0.052,0.086 0,0.129l-0.681,0.388c-0.07,0.038 -0.155,0.038 -0.224,0l-0.767,-0.397c-0.061,0 -0.052,-0.095 0,-0.129l0.68,-0.397c0.08,-0.062 0.193,-0.066 0.276,-0.008Z" style="fill:#3a2c6d;fill-rule:nonzero;"/><path d="M269.739,78.715l0.974,0.56c0.06,0 0.052,0.086 0,0.129l-0.681,0.388c-0.071,0.034 -0.153,0.034 -0.224,0l-1.009,-0.551c-0.06,0 -0.051,-0.087 0,-0.13l0.681,-0.388c0.077,-0.054 0.179,-0.058 0.259,-0.008Z" style="fill:#3a2c6d;fill-rule:nonzero;"/><path d="M263.438,75.077l0.974,0.56c0.06,0 0.052,0.087 0,0.13l-0.681,0.388c-0.071,0.034 -0.153,0.034 -0.224,0l-0.974,-0.569c-0.061,0 -0.052,-0.086 0,-0.13l0.681,-0.387c0.071,-0.036 0.156,-0.033 0.224,0.008Z" style="fill:#3a2c6d;fill-rule:nonzero;"/><path d="M264.705,75.801l4.741,2.741c0.06,0 0.052,0.095 0,0.13l-0.681,0.396c-0.071,0.034 -0.153,0.034 -0.224,0l-4.741,-2.741c-0.06,0 -0.052,-0.086 0,-0.129l0.681,-0.397c0.071,-0.034 0.153,-0.034 0.224,0Z" style="fill:#3a2c6d;fill-rule:nonzero;"/><path d="M269.299,80.715l0.707,0.413c0.061,0 0.052,0.087 0,0.13l-0.681,0.388c-0.069,0.038 -0.154,0.038 -0.224,0l-0.715,-0.406c-0.052,0 -0.043,-0.094 0,-0.137l0.681,-0.388c0.072,-0.039 0.16,-0.039 0.232,0Z" style="fill:#3a2c6d;fill-rule:nonzero;"/><path d="M268.291,80.128l0.707,0.414c0.06,0 0.051,0.095 0,0.13l-0.681,0.396c-0.071,0.034 -0.154,0.034 -0.224,0l-0.716,-0.414c-0.052,0 -0.043,-0.095 0,-0.129l0.681,-0.397c0.074,-0.034 0.159,-0.034 0.233,0Z" style="fill:#3a2c6d;fill-rule:nonzero;"/><path d="M267.282,79.551l0.707,0.414c0.061,0 0.052,0.086 0,0.129l-0.681,0.388c-0.069,0.038 -0.154,0.038 -0.224,0l-0.715,-0.405c-0.052,0 -0.043,-0.095 0,-0.138l0.681,-0.388c0.072,-0.038 0.16,-0.038 0.232,0Z" style="fill:#3a2c6d;fill-rule:nonzero;"/><path d="M266.274,78.965l0.707,0.414c0.06,0 0.051,0.094 0,0.129l-0.673,0.396c-0.073,0.035 -0.159,0.035 -0.232,0l-0.716,-0.413c-0.052,0 -0.043,-0.095 0,-0.13l0.681,-0.396c0.074,-0.035 0.159,-0.035 0.233,0Z" style="fill:#3a2c6d;fill-rule:nonzero;"/><path d="M265.265,78.387l0.707,0.405c0.06,0 0.052,0.095 0,0.138l-0.672,0.388c-0.073,0.038 -0.16,0.038 -0.233,0l-0.715,-0.405c-0.052,0 -0.044,-0.095 0,-0.138l0.681,-0.388c0.072,-0.038 0.16,-0.038 0.232,0Z" style="fill:#3a2c6d;fill-rule:nonzero;"/><path d="M264.257,77.801l0.707,0.414c0.06,0 0.051,0.095 0,0.129l-0.673,0.397c-0.074,0.034 -0.159,0.034 -0.233,0l-0.715,-0.414c-0.052,0 0,-0.095 0,-0.129l0.681,-0.397c0.074,-0.034 0.159,-0.034 0.233,0Z" style="fill:#3a2c6d;fill-rule:nonzero;"/><path d="M263.248,77.224l0.707,0.405c0.06,0 0.052,0.094 0,0.138l-0.672,0.387c-0.073,0.039 -0.16,0.039 -0.233,0l-0.715,-0.413c-0.052,0 -0.044,-0.086 0,-0.13l0.68,-0.387c0.073,-0.039 0.16,-0.039 0.233,0Z" style="fill:#3a2c6d;fill-rule:nonzero;"/><path d="M262.24,76.637l0.707,0.414c0.06,0 0.051,0.086 0,0.129l-0.681,0.397c-0.074,0.034 -0.159,0.034 -0.233,0l-0.716,-0.414c-0.051,0 -0.043,-0.095 0,-0.129l0.681,-0.397c0.076,-0.037 0.166,-0.037 0.242,0Z" style="fill:#3a2c6d;fill-rule:nonzero;"/><path d="M261.231,76.051l0.707,0.414c0.06,0 0.052,0.095 0,0.129l-0.681,0.397c-0.073,0.038 -0.16,0.038 -0.233,0l-0.707,-0.414c-0.06,0 -0.051,-0.086 0,-0.129l0.681,-0.388c0.073,-0.037 0.158,-0.04 0.233,-0.009Z" style="fill:#3a2c6d;fill-rule:nonzero;"/><path d="M260.223,75.474l0.706,0.413c0.061,0 0.052,0.087 0,0.13l-0.681,0.388c-0.073,0.034 -0.159,0.034 -0.232,0l-0.707,-0.414c-0.06,0 -0.052,-0.095 0,-0.129l0.681,-0.397c0.075,-0.032 0.16,-0.028 0.233,0.009Z" style="fill:#3a2c6d;fill-rule:nonzero;"/><path d="M259.214,74.888l0.707,0.413c0.06,0 0.052,0.095 0,0.13l-0.681,0.396c-0.074,0.034 -0.159,0.034 -0.233,0l-0.707,-0.414c-0.06,0 -0.051,-0.086 0,-0.129l0.681,-0.396c0.074,-0.035 0.159,-0.035 0.233,0Z" style="fill:#3a2c6d;fill-rule:nonzero;"/><path d="M258.206,74.31l0.706,0.414c0.061,0 0.052,0.086 0,0.129l-0.681,0.388c-0.072,0.038 -0.16,0.038 -0.232,0l-0.707,-0.405c-0.061,0 -0.052,-0.095 0,-0.129l0.681,-0.397c0.073,-0.038 0.16,-0.038 0.233,0Z" style="fill:#3a2c6d;fill-rule:nonzero;"/><path d="M270.308,81.292l1.474,0.862c0.052,0 0.052,0.095 0,0.129l-0.681,0.397c-0.074,0.034 -0.159,0.034 -0.233,0l-1.474,-0.862c-0.051,0 -0.051,-0.086 0,-0.129l0.681,-0.397c0.074,-0.034 0.159,-0.034 0.233,0Z" style="fill:#3a2c6d;fill-rule:nonzero;"/><path d="M270.773,80.439l0.716,0.414c0.06,0 0.052,0.086 0,0.129l-0.681,0.388c-0.07,0.038 -0.154,0.038 -0.224,0l-0.716,-0.405c-0.06,0 -0.051,-0.095 0,-0.138l0.681,-0.388c0.07,-0.039 0.155,-0.039 0.224,0Z" style="fill:#3a2c6d;fill-rule:nonzero;"/><path d="M269.765,79.853l0.715,0.413c0.061,0 0.052,0.095 0,0.13l-0.681,0.396c-0.07,0.034 -0.153,0.034 -0.224,0l-0.715,-0.414c-0.061,0 -0.052,-0.094 0,-0.129l0.681,-0.396c0.071,-0.034 0.153,-0.034 0.224,0Z" style="fill:#3a2c6d;fill-rule:nonzero;"/><path d="M268.799,79.318l0.716,0.414c0.06,0 0.052,0.086 0,0.129l-0.716,0.319c-0.069,0.038 -0.154,0.038 -0.224,0l-0.715,-0.405c-0.06,0 -0.052,-0.095 0,-0.138l0.681,-0.388c0.092,-0.034 0.196,-0.006 0.258,0.069Z" style="fill:#3a2c6d;fill-rule:nonzero;"/><path d="M267.748,78.689l0.715,0.414c0.061,0 0.052,0.095 0,0.129l-0.681,0.397c-0.07,0.034 -0.153,0.034 -0.224,0l-0.715,-0.414c-0.061,0 -0.052,-0.095 0,-0.13l0.681,-0.396c0.07,-0.034 0.153,-0.034 0.224,0Z" style="fill:#3a2c6d;fill-rule:nonzero;"/><path d="M266.739,78.111l0.716,0.406c0.06,0 0.051,0.094 0,0.137l-0.681,0.388c-0.07,0.039 -0.155,0.039 -0.224,0l-0.716,-0.405c-0.06,0 -0.052,-0.095 0,-0.138l0.681,-0.388c0.07,-0.038 0.155,-0.038 0.224,0Z" style="fill:#3a2c6d;fill-rule:nonzero;"/><path d="M265.731,77.525l0.715,0.414c0.061,0 0.052,0.095 0,0.129l-0.681,0.397c-0.071,0.034 -0.153,0.034 -0.224,0l-0.715,-0.414c-0.061,0 -0.052,-0.095 0,-0.129l0.681,-0.397c0.07,-0.034 0.153,-0.034 0.224,0Z" style="fill:#3a2c6d;fill-rule:nonzero;"/><path d="M264.722,76.948l0.716,0.405c0.06,0 0.051,0.095 0,0.138l-0.681,0.388c-0.07,0.038 -0.155,0.038 -0.224,0l-0.716,-0.414c-0.06,0 -0.052,-0.086 0,-0.129l0.681,-0.388c0.07,-0.039 0.155,-0.039 0.224,0Z" style="fill:#3a2c6d;fill-rule:nonzero;"/><path d="M263.714,76.362l0.715,0.413c0.06,0 0.052,0.095 0,0.13l-0.681,0.396c-0.071,0.034 -0.153,0.034 -0.224,0l-0.715,-0.414c-0.061,0 -0.052,-0.094 0,-0.129l0.681,-0.396c0.07,-0.034 0.153,-0.034 0.224,0Z" style="fill:#3a2c6d;fill-rule:nonzero;"/><path d="M262.705,75.784l0.716,0.405c0.06,0 0.051,0.095 0,0.138l-0.656,0.405c-0.069,0.038 -0.154,0.038 -0.224,0l-0.715,-0.414c-0.06,0 -0.052,-0.086 0,-0.129l0.681,-0.388c0.06,-0.035 0.133,-0.041 0.198,-0.017Z" style="fill:#3a2c6d;fill-rule:nonzero;"/><path d="M261.697,75.198l0.715,0.414c0.06,0 0.052,0.086 0,0.129l-0.681,0.396c-0.071,0.034 -0.153,0.034 -0.224,0l-0.715,-0.413c-0.052,0 -0.052,-0.095 0,-0.13l0.681,-0.396c0.07,-0.034 0.153,-0.034 0.224,0Z" style="fill:#3a2c6d;fill-rule:nonzero;"/><path d="M260.688,74.612l0.716,0.413c0.06,0 0.051,0.095 0,0.13l-0.681,0.396c-0.07,0.039 -0.155,0.039 -0.225,0l-0.715,-0.413c-0.052,0 -0.052,-0.087 0,-0.13l0.681,-0.388c0.069,-0.036 0.152,-0.04 0.224,-0.008Z" style="fill:#3a2c6d;fill-rule:nonzero;"/><path d="M258.456,73.284l1.956,1.138c0.061,0 0.052,0.086 0,0.129l-0.681,0.397c-0.071,0.034 -0.153,0.034 -0.224,0l-1.957,-1.138c-0.06,0 -0.051,-0.086 0,-0.129l0.681,-0.397c0.072,-0.031 0.153,-0.031 0.225,0Z" style="fill:#3a2c6d;fill-rule:nonzero;"/><path d="M271.782,81.042l0.974,0.56c0.06,0 0.052,0.095 0,0.138l-0.681,0.388c-0.07,0.039 -0.154,0.039 -0.224,0l-0.974,-0.56c-0.06,0 -0.052,-0.086 0,-0.129l0.681,-0.397c0.071,-0.034 0.153,-0.034 0.224,0Z" style="fill:#3a2c6d;fill-rule:nonzero;"/><path d="M254.49,75.594l14.309,8.267c0.061,0 0.052,0.095 0,0.129l-0.336,0.198c-0.073,0.035 -0.159,0.035 -0.232,0l-14.318,-8.266c-0.061,0 -0.052,-0.095 0,-0.129l0.336,-0.199c0.075,-0.041 0.166,-0.041 0.241,0Z" style="fill:#3a2c6d;fill-rule:nonzero;"/><path id="_Контур_9_" serif:id="_Контур_9" d="M271.429,76.137l-0.095,0.052l-2.466,1.422l-4.379,-2.525l-0.094,-0.061l2.56,-1.474l4.474,2.586Z" style="fill:#bfbfbf;fill-rule:nonzero;"/><path id="_Контур_10_" serif:id="_Контур_10" d="M271.334,76.189l-2.466,1.422l-4.379,-2.525l2.466,-1.431l4.379,2.534Z" style="fill:#e5e5e5;fill-rule:nonzero;"/><path id="_Контур_11_" serif:id="_Контур_11" d="M278.462,79.456l0,0.224c0.008,0.322 -0.166,0.622 -0.448,0.776l-8.697,5.017c-0.267,0.154 -0.596,0.154 -0.862,0l-15.758,-9.077c-0.285,-0.152 -0.462,-0.452 -0.456,-0.776l0,-0.224l16.627,9.603l9.594,-5.543Z" style="fill:#e5e5e5;fill-rule:nonzero;"/><path id="_Контур_12_" serif:id="_Контур_12" d="M268.868,84.999l0,0.595c-0.157,-0.002 -0.311,-0.043 -0.448,-0.121l-15.723,-9.077c-0.285,-0.152 -0.462,-0.452 -0.456,-0.776l0,-0.224l16.627,9.603Z" style="fill:#e5e5e5;fill-rule:nonzero;"/><path id="_Контур_13_" serif:id="_Контур_13" d="M268.618,85.128c-0.302,0.116 -0.64,0.09 -0.922,-0.069l-15.654,-9.042c-0.275,-0.157 -0.465,-0.429 -0.517,-0.742l-1.724,-10.223c-0.004,-0.057 -0.004,-0.115 0,-0.172c-0.001,-0.286 0.114,-0.56 0.319,-0.759l16.266,9.396c0.204,0.118 0.346,0.32 0.388,0.552l1.844,11.059Z" style="fill:#f4f4f4;fill-rule:nonzero;"/><path id="_Контур_14_" serif:id="_Контур_14" d="M268.868,84.999l-0.103,0.06l-0.147,0.069l-1.853,-11.059c-0.042,-0.232 -0.184,-0.434 -0.388,-0.552l-16.266,-9.396c0.062,-0.066 0.135,-0.122 0.216,-0.164l16.3,9.413c0.206,0.116 0.349,0.319 0.388,0.552l1.853,11.077Z" style="fill:#e5e5e5;fill-rule:nonzero;"/></g></g></g><path d="M71.583,348.545l-17.464,-10.085l17.464,-10.085l17.464,10.085l-17.464,10.085Z" style="fill-opacity:0.3;fill-rule:nonzero;"/><path d="M99.262,332.383l-17.464,-10.077l17.464,-10.085l17.464,10.085l-17.464,10.077Z" style="fill-opacity:0.3;fill-rule:nonzero;"/><path d="M109.632,261.492l-17.464,-10.085l17.464,-10.085l17.464,10.085l-17.464,10.085Z" style="fill:#03a6e6;fill-rule:nonzero;"/><path d="M109.632,326.547l-17.464,-10.085l0,-65.055l17.464,10.085l0,65.055Z" style="fill:#03a3de;fill-rule:nonzero;"/><path d="M127.096,316.462l-17.464,10.085l0,-65.055l17.464,-10.085l0,65.055Z" style="fill:#0396cc;fill-rule:nonzero;"/><path d="M83.436,294.61l-17.464,-10.085l17.464,-10.077l17.464,10.077l-17.464,10.085Z" style="fill:#1fcdde;fill-rule:nonzero;"/><path d="M83.436,341.589l-17.464,-10.085l0,-46.979l17.464,10.085l0,46.979Z" style="fill:#1dc0ce;fill-rule:nonzero;"/><path d="M100.9,331.504l-17.464,10.085l0,-46.979l17.464,-10.085l0,46.979Z" style="fill:#1aafbc;fill-rule:nonzero;"/><path d="M49.215,361.76l-17.464,-10.086l17.464,-10.085l17.464,10.085l-17.464,10.086Z" style="fill-opacity:0.3;fill-rule:nonzero;"/><path d="M55.542,329.047l-17.464,-10.085l17.464,-10.077l17.464,10.077l-17.464,10.085Z" style="fill:#36f0d8;fill-rule:nonzero;"/><path d="M55.542,357.95l-17.464,-10.077l0,-28.911l17.464,10.085l0,28.903Z" style="fill:#11e2c6;fill-rule:nonzero;"/><path d="M73.006,347.873l-17.464,10.077l0,-28.903l17.464,-10.085l0,28.911Z" style="fill:#36f0d8;fill-rule:nonzero;"/><path d="M73.006,347.873l-17.464,10.077l0,-28.903l17.464,-10.085l0,28.911Z" style="fill-opacity:0.15;fill-rule:nonzero;"/><path d="M235.44,425.616l-11.206,-16.136l-5.43,-2.431c-4.122,-0.953 -8.338,-1.439 -12.568,-1.448c-5.06,5.103 -36.971,6.465 -49.643,0.172c-14.369,-7.137 -21.903,-15.852 -24.247,-21.188c-4.173,-9.482 3.784,-20.627 3.784,-20.627c-21.74,12.55 -21.74,32.98 0,45.53c20.377,11.767 52.737,12.499 74.614,2.207l24.696,13.921Z" style="fill-opacity:0.4;fill-rule:nonzero;"/><path d="M296.857,465.492l-75.252,-43.444l12.784,-7.379l75.252,43.445l-12.784,7.378Z" style="fill-opacity:0.4;fill-rule:nonzero;"/><path d="M138.819,405.515c-21.739,-12.551 -21.739,-32.972 0,-45.522c21.74,-12.551 57.116,-12.551 78.856,0c21.739,12.55 21.739,32.971 0,45.522c-21.74,12.55 -57.116,12.568 -78.856,0Zm69.236,-39.971c-16.439,-9.482 -43.186,-9.482 -59.616,0c-16.43,9.482 -16.438,24.955 0,34.437c16.438,9.482 43.177,9.482 59.616,0c16.438,-9.482 16.438,-24.947 0,-34.437Z" style="fill:#b1b4c4;fill-rule:nonzero;"/><path d="M122.545,383.715l0,-9.646l9.775,4.819l-9.775,4.827Z" style="fill:#b1b4c4;fill-rule:nonzero;"/><path d="M150.223,399.619c0.397,0.491 1.793,9.938 29.636,9.938c27.842,0 26.653,-11.162 26.653,-11.162c0,0 -26.257,3.611 -26.653,3.611c-0.397,0 -29.636,-2.387 -29.636,-2.387Z" style="fill:#b1b4c4;fill-rule:nonzero;"/><path d="M233.975,374.069l0,8.68l-8.017,-5.111l8.017,-3.569Z" style="fill:#b1b4c4;fill-rule:nonzero;"/><path d="M152.904,353.071c8.083,-3.144 16.67,-4.794 25.343,-4.87c8.437,0.026 16.778,1.808 24.489,5.232l-1.767,2.939l-46.548,0l-1.517,-3.301Z" style="fill:#b1b4c4;fill-rule:nonzero;"/><ellipse cx="178.255" cy="377.405" rx="41.505" ry="23.963" style="fill:#ebf2ff;"/><path d="M138.819,396.834c-21.739,-12.55 -21.739,-32.98 0,-45.53c21.74,-12.551 57.116,-12.551 78.856,0c21.739,12.55 21.739,32.98 0,45.53c-21.74,12.551 -57.116,12.551 -78.856,0Zm69.236,-39.953c-16.439,-9.482 -43.186,-9.482 -59.616,0c-16.43,9.482 -16.438,24.937 0,34.428c16.438,9.49 43.177,9.482 59.616,0c16.438,-9.482 16.438,-24.946 0,-34.428Z" style="fill:#d6d8e5;fill-rule:nonzero;"/><path d="M230.691,410.592l-18.861,-10.973l10.956,-6.319l18.861,10.965l-10.956,6.327Z" style="fill:#d6d8e5;fill-rule:nonzero;"/><path d="M230.691,419.332l-18.844,-10.904l0,-8.801l18.844,10.904l0,8.801Z" style="fill:#b1b4c4;fill-rule:nonzero;"/><path d="M299.245,463.975l-75.243,-43.444l0,-14.758l75.243,43.445l0,14.757Z" style="fill:#2b303f;fill-rule:nonzero;"/><path d="M299.254,449.226l-75.252,-43.444l12.783,-7.379l75.252,43.436l-12.783,7.387Z" style="fill:#394051;fill-rule:nonzero;"/><path d="M299.245,463.975c0.776,-0.086 12.792,-7.198 12.792,-7.198l0,-14.938l-12.783,7.387l-0.009,14.749Z" style="fill:#232733;fill-rule:nonzero;"/><g id="Men_11"><path id="_Контур_15_" serif:id="_Контур_15" d="M85.005,269.388c1.265,2.264 2.806,4.363 4.586,6.25c0.5,0.577 4.31,-0.862 3.516,-1.293c-0.793,-0.431 -3.301,-3.897 -4.551,-6.215c-1.05,-2.778 -1.942,-5.613 -2.672,-8.491c-0.784,-2.845 -1.465,-7.017 -2.034,-8.982c-0.307,-1.475 -1.453,-2.641 -2.923,-2.974c-1.379,-0.319 -2.267,0.061 -2.017,1.724c0.44,2.914 2.724,14.249 6.095,19.981Z" style="fill:#ffcea9;fill-rule:nonzero;"/><path d="M82.815,313.781c1.181,0.965 2.931,0.086 3.017,0.172c1.387,1.292 2.843,2.506 4.362,3.638c0.741,0.578 1.896,1.353 1.724,2.474c-0.371,1.991 -3.56,1.379 -4.767,0.767c-1.207,-0.612 -2.189,-1.62 -3.327,-2.327c-0.81,-0.509 -1.612,-0.767 -1.724,-1.793c-0.138,-0.612 0.508,-2.931 0.715,-2.931Z" style="fill:#2b2a30;fill-rule:nonzero;"/><path d="M82.057,316.307c0.155,0.982 0.948,1.25 1.724,1.724c1.163,0.715 2.181,1.724 3.387,2.362c1.207,0.637 3.888,1.129 4.664,-0.302c-0.423,1.922 -3.56,1.319 -4.75,0.715c-1.189,-0.603 -2.189,-1.62 -3.327,-2.327c-0.81,-0.509 -1.612,-0.767 -1.724,-1.793c-0.005,-0.127 0.004,-0.254 0.026,-0.379Z" style="fill:#9c73ff;fill-rule:nonzero;"/><path d="M94.814,306.885c1.19,0.965 3.259,-0.086 3.345,0c1.235,1.247 2.539,2.424 3.905,3.526c0.732,0.577 1.887,1.353 1.724,2.465c-0.371,2 -3.569,1.388 -4.776,0.776c-1.207,-0.612 -2.189,-1.621 -3.327,-2.328c-0.81,-0.508 -1.612,-0.767 -1.724,-1.793c0.054,-0.94 0.348,-1.851 0.853,-2.646Z" style="fill:#2b2a30;fill-rule:nonzero;"/><path d="M93.935,309.247c0.164,0.983 0.948,1.25 1.724,1.724c1.155,0.715 2.181,1.724 3.379,2.362c1.198,0.638 3.896,1.129 4.672,-0.302c-0.414,1.957 -3.526,1.353 -4.724,0.75c-1.198,-0.603 -2.189,-1.621 -3.327,-2.327c-0.862,-0.509 -1.621,-0.768 -1.724,-1.793c-0.017,-0.138 -0.017,-0.277 0,-0.414Z" style="fill:#9c73ff;fill-rule:nonzero;"/><path id="_Контур_16_" serif:id="_Контур_16" d="M66.989,275.853c-1.31,8.198 2.327,11.249 7.06,12.999c3.396,1.25 8.266,3.172 8.266,3.172c0,0 -0.069,1.802 -0.103,5.836c0,3.56 0.431,16.533 0.431,16.533c1.135,0.584 2.485,0.584 3.62,0c1.135,-0.584 1.914,-9.947 2.319,-14.43c0.543,-6.077 1.483,-10.059 1.172,-11.369c-0.276,-1.156 -6.896,-4.423 -9.033,-6.172l13.955,4.637c-0.279,1.51 -0.415,3.042 -0.405,4.577c0.129,4.828 0.388,15.266 0.388,15.266c0,0 1.914,1.379 3.543,0c0,0 3.5,-20.688 3.077,-23.412c-0.405,-2.585 -12.671,-7.904 -14.835,-9.731c-0.76,-0.625 -1.752,-0.895 -2.724,-0.742l-16.731,2.836Z" style="fill:#ff0080;fill-rule:nonzero;"/><g id="_Группа_3_" serif:id="_Группа_3"><g id="_Группа_4_" serif:id="_Группа_4"><path id="_Контур_17_" serif:id="_Контур_17" d="M100.374,279.301l-9.353,-5.405c-0.168,-0.095 -0.374,-0.095 -0.543,0l-16.378,9.482l9.629,5.552l16.645,-9.629Z" style="fill:#f4f4f4;fill-rule:nonzero;"/><path d="M83.255,286.913l-0.707,0.413c-0.06,0 -0.052,0.087 0,0.13l0.681,0.388c0.073,0.038 0.16,0.038 0.233,0l0.707,-0.406c0.06,0 0.051,-0.094 0,-0.137l-0.681,-0.388c-0.073,-0.039 -0.16,-0.039 -0.233,0Z" style="fill:#3a2c6d;fill-rule:nonzero;"/><path d="M84.263,286.326l-0.706,0.414c-0.061,0 -0.052,0.095 0,0.13l0.681,0.396c0.07,0.034 0.153,0.034 0.224,0l0.715,-0.414c0.052,0 0,-0.095 0,-0.129l-0.681,-0.397c-0.074,-0.034 -0.159,-0.034 -0.233,0Z" style="fill:#3a2c6d;fill-rule:nonzero;"/><path d="M85.289,285.74l-0.715,0.414c-0.061,0 -0.052,0.086 0,0.129l0.681,0.388c0.069,0.039 0.154,0.039 0.224,0l0.715,-0.405c0.061,0 0.052,-0.095 0,-0.138l-0.681,-0.388c-0.069,-0.038 -0.154,-0.038 -0.224,0Z" style="fill:#3a2c6d;fill-rule:nonzero;"/><path d="M86.289,285.163l-0.715,0.414c-0.061,0 -0.052,0.086 0,0.129l0.681,0.388c0.07,0.034 0.153,0.034 0.224,0l0.715,-0.414c0.061,0 0.052,-0.095 0,-0.129l-0.681,-0.397c-0.072,-0.031 -0.154,-0.028 -0.224,0.009Z" style="fill:#3a2c6d;fill-rule:nonzero;"/><path d="M87.298,284.577l-0.716,0.413c-0.06,0 -0.052,0.095 0,0.13l0.681,0.396c0.071,0.034 0.154,0.034 0.224,0l0.716,-0.414c0.06,0 0.051,-0.094 0,-0.129l-0.681,-0.396c-0.071,-0.034 -0.154,-0.034 -0.224,0Z" style="fill:#3a2c6d;fill-rule:nonzero;"/><path d="M88.306,283.999l-0.715,0.405c-0.061,0 -0.052,0.095 0,0.138l0.681,0.388c0.069,0.038 0.154,0.038 0.224,0l0.715,-0.405c0.061,0 0.052,-0.095 0,-0.138l-0.681,-0.388c-0.069,-0.038 -0.154,-0.038 -0.224,0Z" style="fill:#3a2c6d;fill-rule:nonzero;"/><path d="M89.315,283.413l-0.716,0.414c-0.051,0 -0.051,0.094 0,0.129l0.681,0.396c0.071,0.035 0.154,0.035 0.224,0l0.716,-0.413c0.06,0 0.052,-0.095 0,-0.13l-0.681,-0.396c-0.071,-0.034 -0.154,-0.034 -0.224,0Z" style="fill:#3a2c6d;fill-rule:nonzero;"/><path d="M90.366,282.827l-0.715,0.414c-0.052,0 -0.052,0.094 0,0.129l0.681,0.396c0.073,0.039 0.16,0.039 0.233,0l0.706,-0.413c0.061,0 0.052,-0.087 0,-0.13l-0.681,-0.388c-0.069,-0.036 -0.152,-0.04 -0.224,-0.008Z" style="fill:#3a2c6d;fill-rule:nonzero;"/><path d="M91.332,282.249l-0.707,0.414c-0.06,0 -0.052,0.086 0,0.129l0.681,0.388c0.073,0.038 0.16,0.038 0.233,0l0.707,-0.405c0.06,0 0.051,-0.095 0,-0.129l-0.681,-0.397c-0.073,-0.038 -0.16,-0.038 -0.233,0Z" style="fill:#3a2c6d;fill-rule:nonzero;"/><path d="M92.34,281.663l-0.707,0.414c-0.06,0 -0.051,0.095 0,0.129l0.673,0.397c0.074,0.034 0.159,0.034 0.233,0l0.715,-0.414c0.052,0 0,-0.095 0,-0.129l-0.681,-0.397c-0.074,-0.034 -0.159,-0.034 -0.233,0Z" style="fill:#3a2c6d;fill-rule:nonzero;"/><path d="M93.349,281.086l-0.707,0.405c-0.06,0 -0.052,0.094 0,0.138l0.681,0.387c0.07,0.039 0.154,0.039 0.224,0l0.716,-0.413c0.051,0 0.051,-0.086 0,-0.13l-0.681,-0.387c-0.073,-0.039 -0.16,-0.039 -0.233,0Z" style="fill:#3a2c6d;fill-rule:nonzero;"/><path d="M94.366,280.499l-0.715,0.414c-0.061,0 -0.052,0.086 0,0.129l0.681,0.397c0.07,0.034 0.153,0.034 0.224,0l0.715,-0.414c0.06,0 0.052,-0.095 0,-0.129l-0.681,-0.397c-0.071,-0.034 -0.153,-0.034 -0.224,0Z" style="fill:#3a2c6d;fill-rule:nonzero;"/><path d="M95.375,279.913l-0.716,0.414c-0.06,0 -0.052,0.095 0,0.129l0.681,0.397c0.071,0.034 0.153,0.034 0.224,0l0.716,-0.414c0.06,0 0.051,-0.086 0,-0.129l-0.681,-0.397c-0.071,-0.034 -0.154,-0.034 -0.224,0Z" style="fill:#3a2c6d;fill-rule:nonzero;"/><path d="M96.866,279.051l-1.198,0.698c-0.061,0 -0.052,0.087 0,0.13l0.681,0.388c0.069,0.038 0.154,0.038 0.224,0l1.198,-0.69c0.06,0 0.052,-0.095 0,-0.129l-0.681,-0.397c-0.071,-0.031 -0.153,-0.031 -0.224,0Z" style="fill:#3a2c6d;fill-rule:nonzero;"/><path d="M83.781,285.482l-0.716,0.413c-0.06,0 -0.051,0.087 0,0.13l0.681,0.396c0.072,0.03 0.153,0.03 0.224,0l0.716,-0.413c0.052,0 0.052,-0.095 0,-0.13l-0.681,-0.396c-0.071,-0.034 -0.154,-0.034 -0.224,0Z" style="fill:#3a2c6d;fill-rule:nonzero;"/><path d="M84.789,284.896l-0.715,0.413c-0.061,0 -0.052,0.095 0,0.13l0.681,0.396c0.071,0.034 0.153,0.034 0.224,0l0.715,-0.414c0.061,0 0.052,-0.094 0,-0.129l-0.681,-0.396c-0.07,-0.034 -0.153,-0.034 -0.224,0Z" style="fill:#3a2c6d;fill-rule:nonzero;"/><path d="M85.798,284.309l-0.716,0.414c-0.051,0 0,0.095 0,0.129l0.681,0.397c0.073,0.038 0.16,0.038 0.233,0l0.707,-0.414c0.06,0 0.052,-0.086 0,-0.129l-0.681,-0.388c-0.07,-0.037 -0.152,-0.04 -0.224,-0.009Z" style="fill:#3a2c6d;fill-rule:nonzero;"/><path d="M86.806,283.732l-0.707,0.414c-0.06,0 -0.051,0.086 0,0.129l0.681,0.388c0.07,0.038 0.155,0.038 0.225,0l0.715,-0.405c0.052,0 0.052,-0.095 0,-0.138l-0.681,-0.388c-0.073,-0.038 -0.16,-0.038 -0.233,0Z" style="fill:#3a2c6d;fill-rule:nonzero;"/><path d="M87.78,283.154l-0.715,0.405c-0.06,0 -0.052,0.095 0,0.138l0.681,0.388c0.07,0.039 0.154,0.039 0.224,0l0.715,-0.413c0.061,0 0.052,-0.087 0,-0.13l-0.681,-0.388c-0.069,-0.038 -0.154,-0.038 -0.224,0Z" style="fill:#3a2c6d;fill-rule:nonzero;"/><path d="M88.823,282.568l-0.715,0.414c-0.052,0 0,0.086 0,0.129l0.681,0.388c0.073,0.038 0.16,0.038 0.233,0l0.706,-0.405c0.061,0 0.052,-0.095 0,-0.138l-0.672,-0.388c-0.073,-0.038 -0.16,-0.038 -0.233,0Z" style="fill:#3a2c6d;fill-rule:nonzero;"/><path d="M89.832,281.982l-0.707,0.414c-0.06,0 -0.052,0.095 0,0.129l0.681,0.397c0.071,0.034 0.153,0.034 0.224,0l0.716,-0.414c0.051,0 0.051,-0.095 0,-0.129l-0.681,-0.397c-0.074,-0.034 -0.159,-0.034 -0.233,0Z" style="fill:#3a2c6d;fill-rule:nonzero;"/><path d="M90.849,281.396l-0.715,0.414c-0.061,0 -0.052,0.094 0,0.129l0.681,0.396c0.07,0.034 0.153,0.034 0.224,0l0.715,-0.413c0.061,0 0.052,-0.087 0,-0.13l-0.681,-0.396c-0.071,-0.034 -0.153,-0.034 -0.224,0Z" style="fill:#3a2c6d;fill-rule:nonzero;"/><path d="M91.858,280.818l-0.716,0.405c-0.052,0 -0.043,0.095 0,0.138l0.681,0.388c0.073,0.039 0.16,0.039 0.233,0l0.707,-0.413c0.06,0 0.051,-0.087 0,-0.13l-0.681,-0.388c-0.07,-0.038 -0.155,-0.038 -0.224,0Z" style="fill:#3a2c6d;fill-rule:nonzero;"/><path d="M92.866,280.232l-0.707,0.414c-0.06,0 -0.051,0.086 0,0.129l0.681,0.388c0.071,0.034 0.154,0.034 0.224,0l0.716,-0.414c0.052,0 0.052,-0.094 0,-0.129l-0.681,-0.396c-0.074,-0.036 -0.162,-0.033 -0.233,0.008Z" style="fill:#3a2c6d;fill-rule:nonzero;"/><path d="M93.883,279.646l-0.715,0.414c-0.061,0 -0.052,0.095 0,0.129l0.681,0.397c0.071,0.034 0.153,0.034 0.224,0l0.715,-0.414c0.061,0 0.052,-0.095 0,-0.129l-0.681,-0.397c-0.07,-0.034 -0.153,-0.034 -0.224,0Z" style="fill:#3a2c6d;fill-rule:nonzero;"/><path d="M94.892,279.06l-0.716,0.414c-0.051,0 -0.051,0.094 0,0.129l0.681,0.396c0.074,0.035 0.159,0.035 0.233,0l0.707,-0.413c0.06,0 0.052,-0.087 0,-0.13l-0.681,-0.396c-0.072,-0.03 -0.152,-0.03 -0.224,0Z" style="fill:#3a2c6d;fill-rule:nonzero;"/><path d="M82.764,286.068l-1.199,0.689c-0.06,0 -0.051,0.095 0,0.13l0.681,0.396c0.071,0.034 0.154,0.034 0.224,0l1.199,-0.689c0.06,0 0.051,-0.095 0,-0.138l-0.673,-0.388c-0.072,-0.038 -0.16,-0.038 -0.232,0Z" style="fill:#3a2c6d;fill-rule:nonzero;"/><path d="M96.823,279.017l-0.716,0.413c-0.068,0.031 -0.147,0.031 -0.215,0l-0.716,-0.422c-0.06,0 -0.06,-0.086 0,-0.121l0.052,0c0.06,0 0.06,-0.077 0,-0.112l-0.759,-0.439c-0.06,0 -0.06,-0.086 0,-0.121l0.457,-0.259c0.065,-0.035 0.143,-0.035 0.207,0l0.716,0.414l0.146,0.078l0.104,0.06l0.103,0.069l0.621,0.354c0.02,0.025 0.02,0.061 0,0.086Z" style="fill:#3a2c6d;fill-rule:nonzero;"/><path d="M79.35,284.646l-0.715,0.413c-0.061,0 -0.052,0.095 0,0.13l0.681,0.396c0.07,0.034 0.153,0.034 0.224,0l0.715,-0.414c0.06,0 0.052,-0.086 0,-0.129l-0.681,-0.396c-0.071,-0.034 -0.153,-0.034 -0.224,0Z" style="fill:#3a2c6d;fill-rule:nonzero;"/><path d="M80.35,284.068l-0.707,0.414c-0.06,0 -0.052,0.086 0,0.129l0.681,0.388c0.071,0.034 0.153,0.034 0.224,0l0.716,-0.414c0.051,0 0.051,-0.095 0,-0.129l-0.681,-0.397c-0.075,-0.031 -0.161,-0.028 -0.233,0.009Z" style="fill:#3a2c6d;fill-rule:nonzero;"/><path d="M81.358,283.49l-0.706,0.406c-0.061,0 -0.052,0.094 0,0.129l0.681,0.396c0.072,0.039 0.16,0.039 0.232,0l0.707,-0.413c0.061,0 0.052,-0.087 0,-0.13l-0.681,-0.388c-0.073,-0.038 -0.16,-0.038 -0.233,0Z" style="fill:#3a2c6d;fill-rule:nonzero;"/><path d="M89.935,278.534l-0.715,0.414c-0.06,0 -0.052,0.095 0,0.129l0.681,0.397c0.071,0.034 0.153,0.034 0.224,0l0.715,-0.414c0.061,0 0.052,-0.095 0,-0.129l-0.681,-0.397c-0.07,-0.034 -0.153,-0.034 -0.224,0Z" style="fill:#3a2c6d;fill-rule:nonzero;"/><path d="M90.944,277.956l-0.716,0.414c-0.06,0 -0.051,0.086 0,0.13l0.681,0.387c0.071,0.034 0.154,0.034 0.225,0l0.715,-0.413c0.06,0 0.052,-0.095 0,-0.13l-0.681,-0.396c-0.071,-0.036 -0.156,-0.033 -0.224,0.008Z" style="fill:#3a2c6d;fill-rule:nonzero;"/><path d="M91.944,277.37l-0.707,0.414c-0.06,0 -0.052,0.095 0,0.129l0.681,0.397c0.071,0.034 0.153,0.034 0.224,0l0.716,-0.414c0.051,0 0,-0.086 0,-0.129l-0.681,-0.388c-0.073,-0.037 -0.158,-0.04 -0.233,-0.009Z" style="fill:#3a2c6d;fill-rule:nonzero;"/><path d="M92.952,276.793l-0.715,0.414c-0.052,0 0,0.086 0,0.129l0.681,0.396c0.074,0.035 0.159,0.035 0.233,0l0.706,-0.413c0.061,0 0.052,-0.095 0,-0.13l-0.672,-0.396c-0.074,-0.035 -0.159,-0.035 -0.233,0Z" style="fill:#3a2c6d;fill-rule:nonzero;"/><path d="M82.608,282.749l-0.974,0.56c-0.051,0 -0.051,0.095 0,0.13l0.681,0.396c0.071,0.034 0.154,0.034 0.224,0l0.974,-0.56c0.061,0 0.052,-0.095 0,-0.138l-0.68,-0.388c-0.07,-0.038 -0.155,-0.038 -0.225,0Z" style="fill:#3a2c6d;fill-rule:nonzero;"/><path d="M88.927,279.12l-0.974,0.56c-0.061,0 -0.052,0.095 0,0.13l0.681,0.396c0.071,0.034 0.153,0.034 0.224,0l0.974,-0.56c0.06,0 0.052,-0.095 0,-0.138l-0.681,-0.388c-0.07,-0.038 -0.154,-0.038 -0.224,0Z" style="fill:#3a2c6d;fill-rule:nonzero;"/><path d="M87.66,279.853l-4.741,2.732c-0.061,0 -0.052,0.095 0,0.13l0.681,0.396c0.07,0.034 0.153,0.034 0.224,0l4.741,-2.741c0.06,0 0.052,-0.086 0,-0.129l-0.673,-0.388c-0.072,-0.038 -0.16,-0.038 -0.232,0Z" style="fill:#3a2c6d;fill-rule:nonzero;"/><path d="M83.074,284.758l-0.716,0.413c-0.06,0 -0.051,0.087 0,0.13l0.681,0.396c0.071,0.034 0.154,0.034 0.225,0l0.715,-0.414c0.06,0 0.052,-0.094 0,-0.129l-0.681,-0.396c-0.071,-0.034 -0.153,-0.034 -0.224,0Z" style="fill:#3a2c6d;fill-rule:nonzero;"/><path d="M84.082,284.171l-0.715,0.414c-0.06,0 -0.052,0.095 0,0.13l0.681,0.396c0.07,0.038 0.154,0.038 0.224,0l0.715,-0.414c0.061,0 0.052,-0.086 0,-0.129l-0.68,-0.388c-0.07,-0.037 -0.153,-0.04 -0.225,-0.009Z" style="fill:#3a2c6d;fill-rule:nonzero;"/><path d="M85.091,283.611l-0.716,0.414c-0.06,0 -0.051,0.086 0,0.129l0.681,0.388c0.071,0.034 0.154,0.034 0.225,0l0.715,-0.414c0.06,0 0.052,-0.094 0,-0.129l-0.681,-0.396c-0.072,-0.032 -0.155,-0.029 -0.224,0.008Z" style="fill:#3a2c6d;fill-rule:nonzero;"/><path d="M86.099,283.008l-0.715,0.414c-0.06,0 -0.052,0.094 0,0.129l0.681,0.396c0.071,0.034 0.153,0.034 0.224,0l0.716,-0.413c0.06,0 0.051,-0.087 0,-0.13l-0.681,-0.396c-0.071,-0.034 -0.154,-0.034 -0.225,0Z" style="fill:#3a2c6d;fill-rule:nonzero;"/><path d="M87.108,282.43l-0.715,0.414c-0.061,0 -0.052,0.086 0,0.129l0.681,0.388c0.069,0.038 0.154,0.038 0.224,0l0.715,-0.405c0.06,0 0.052,-0.095 0,-0.129l-0.681,-0.397c-0.07,-0.038 -0.154,-0.038 -0.224,0Z" style="fill:#3a2c6d;fill-rule:nonzero;"/><path d="M88.117,281.887l-0.716,0.414c-0.06,0 -0.052,0.095 0,0.129l0.681,0.397c0.071,0.034 0.153,0.034 0.224,0l0.716,-0.414c0.06,0 0.051,-0.095 0,-0.129l-0.681,-0.397c-0.071,-0.034 -0.154,-0.034 -0.224,0Z" style="fill:#3a2c6d;fill-rule:nonzero;"/><path d="M89.125,281.267l-0.715,0.413c-0.061,0 -0.052,0.087 0,0.13l0.681,0.387c0.069,0.039 0.154,0.039 0.224,0l0.715,-0.405c0.061,0 0.052,-0.094 0,-0.138l-0.681,-0.387c-0.07,-0.039 -0.154,-0.039 -0.224,0Z" style="fill:#3a2c6d;fill-rule:nonzero;"/><path d="M90.134,280.68l-0.716,0.414c-0.06,0 -0.052,0.095 0,0.129l0.681,0.397c0.071,0.034 0.153,0.034 0.224,0l0.716,-0.414c0.06,0 0.051,-0.095 0,-0.129l-0.681,-0.397c-0.071,-0.034 -0.154,-0.034 -0.224,0Z" style="fill:#3a2c6d;fill-rule:nonzero;"/><path d="M91.142,280.103l-0.715,0.405c-0.061,0 -0.052,0.095 0,0.138l0.681,0.388c0.069,0.038 0.154,0.038 0.224,0l0.715,-0.405c0.061,0 0.052,-0.095 0,-0.138l-0.681,-0.388c-0.069,-0.038 -0.154,-0.038 -0.224,0Z" style="fill:#3a2c6d;fill-rule:nonzero;"/><path d="M92.151,279.517l-0.716,0.413c-0.06,0 -0.051,0.095 0,0.13l0.681,0.396c0.071,0.034 0.154,0.034 0.224,0l0.716,-0.413c0.06,0 0.051,-0.095 0,-0.13l-0.681,-0.396c-0.071,-0.034 -0.154,-0.034 -0.224,0Z" style="fill:#3a2c6d;fill-rule:nonzero;"/><path d="M93.159,278.939l-0.715,0.405c-0.061,0 -0.052,0.095 0,0.138l0.681,0.388c0.069,0.038 0.154,0.038 0.224,0l0.715,-0.414c0.061,0 0.052,-0.086 0,-0.129l-0.681,-0.388c-0.069,-0.038 -0.154,-0.038 -0.224,0Z" style="fill:#3a2c6d;fill-rule:nonzero;"/><path d="M94.168,278.353l-0.716,0.414c-0.06,0 -0.051,0.095 0,0.129l0.681,0.397c0.071,0.034 0.154,0.034 0.224,0l0.716,-0.414c0.06,0 0.052,-0.095 0,-0.129l-0.681,-0.397c-0.071,-0.034 -0.153,-0.034 -0.224,0Z" style="fill:#3a2c6d;fill-rule:nonzero;"/><path d="M82.065,285.335l-1.474,0.862c-0.06,0 -0.051,0.095 0,0.138l0.681,0.388c0.07,0.038 0.155,0.038 0.224,0l1.474,-0.862c0.061,0 0.052,-0.086 0,-0.129l-0.681,-0.388c-0.068,-0.041 -0.152,-0.044 -0.224,-0.009Z" style="fill:#3a2c6d;fill-rule:nonzero;"/><path d="M81.591,284.473l-0.707,0.414c-0.06,0 -0.051,0.086 0,0.129l0.681,0.397c0.074,0.034 0.159,0.034 0.233,0l0.707,-0.414c0.06,0 0.052,-0.095 0,-0.129l-0.681,-0.397c-0.074,-0.034 -0.159,-0.034 -0.233,0Z" style="fill:#3a2c6d;fill-rule:nonzero;"/><path d="M82.608,283.896l-0.706,0.413c-0.061,0 -0.052,0.095 0,0.13l0.681,0.396c0.072,0.038 0.159,0.038 0.232,0l0.707,-0.414c0.06,0 0.052,-0.086 0,-0.129l-0.681,-0.388c-0.072,-0.037 -0.158,-0.04 -0.233,-0.008Z" style="fill:#3a2c6d;fill-rule:nonzero;"/><path d="M83.608,283.318l-0.715,0.414c-0.052,0 0,0.086 0,0.129l0.681,0.388c0.074,0.034 0.159,0.034 0.233,0l0.706,-0.414c0.061,0 0.052,-0.095 0,-0.129l-0.672,-0.397c-0.075,-0.031 -0.16,-0.028 -0.233,0.009Z" style="fill:#3a2c6d;fill-rule:nonzero;"/><path d="M84.617,282.749l-0.716,0.414c-0.051,0 0,0.095 0,0.129l0.681,0.397c0.074,0.034 0.159,0.034 0.233,0l0.707,-0.414c0.06,0 0.052,-0.086 0,-0.129l-0.672,-0.397c-0.075,-0.03 -0.159,-0.03 -0.233,0Z" style="fill:#3a2c6d;fill-rule:nonzero;"/><path d="M85.625,282.154l-0.715,0.414c-0.052,0 -0.043,0.086 0,0.129l0.681,0.388c0.074,0.035 0.159,0.035 0.233,0l0.706,-0.413c0.061,0 0.052,-0.095 0,-0.13l-0.681,-0.396c-0.071,-0.036 -0.155,-0.033 -0.224,0.008Z" style="fill:#3a2c6d;fill-rule:nonzero;"/><path d="M86.634,281.568l-0.716,0.414c-0.051,0 -0.051,0.095 0,0.129l0.681,0.397c0.074,0.034 0.159,0.034 0.233,0l0.707,-0.414c0.06,0 0.052,-0.086 0,-0.129l-0.681,-0.397c-0.071,-0.034 -0.153,-0.034 -0.224,0Z" style="fill:#3a2c6d;fill-rule:nonzero;"/><path d="M87.642,281.025l-0.715,0.414c-0.052,0 -0.052,0.086 0,0.129l0.681,0.388c0.073,0.038 0.16,0.038 0.233,0l0.707,-0.405c0.06,0 0.051,-0.095 0,-0.138l-0.681,-0.388c-0.07,-0.038 -0.155,-0.038 -0.225,0Z" style="fill:#3a2c6d;fill-rule:nonzero;"/><path d="M88.642,280.405l-0.715,0.413c-0.052,0 -0.052,0.095 0,0.13l0.681,0.396c0.071,0.034 0.153,0.034 0.224,0l0.715,-0.414c0.061,0 0.052,-0.094 0,-0.129l-0.681,-0.396c-0.07,-0.034 -0.153,-0.034 -0.224,0Z" style="fill:#3a2c6d;fill-rule:nonzero;"/><path d="M89.66,279.827l-0.716,0.414c-0.052,0 -0.052,0.086 0,0.129l0.681,0.388c0.07,0.038 0.154,0.038 0.224,0l0.716,-0.405c0.06,0 0.051,-0.095 0,-0.138l-0.681,-0.388c-0.07,-0.038 -0.155,-0.038 -0.224,0Z" style="fill:#3a2c6d;fill-rule:nonzero;"/><path d="M90.668,279.241l-0.715,0.414c-0.052,0 -0.052,0.094 0,0.129l0.681,0.396c0.07,0.034 0.153,0.034 0.224,0l0.715,-0.413c0.06,0 0.052,-0.095 0,-0.13l-0.681,-0.396c-0.071,-0.034 -0.153,-0.034 -0.224,0Z" style="fill:#3a2c6d;fill-rule:nonzero;"/><path d="M91.677,278.663l-0.716,0.405c-0.06,0 -0.052,0.095 0,0.138l0.681,0.388c0.07,0.039 0.155,0.039 0.224,0l0.716,-0.405c0.06,0 0.051,-0.095 0,-0.138l-0.681,-0.388c-0.07,-0.038 -0.155,-0.038 -0.224,0Z" style="fill:#3a2c6d;fill-rule:nonzero;"/><path d="M93.935,277.362l-1.965,1.129c-0.061,0 -0.052,0.095 0,0.129l0.681,0.397c0.07,0.034 0.153,0.034 0.224,0l1.965,-1.138c0.06,0 0.052,-0.086 0,-0.129l-0.681,-0.388c-0.07,-0.039 -0.154,-0.039 -0.224,0Z" style="fill:#3a2c6d;fill-rule:nonzero;"/><path d="M80.583,285.068l-0.974,0.56c-0.052,0 -0.043,0.086 0,0.13l0.681,0.387c0.073,0.035 0.159,0.035 0.232,0l0.966,-0.568c0.06,0 0.052,-0.087 0,-0.13l-0.681,-0.388c-0.072,-0.032 -0.155,-0.029 -0.224,0.009Z" style="fill:#3a2c6d;fill-rule:nonzero;"/><path d="M97.883,279.637l-14.318,8.284c-0.06,0 -0.052,0.095 0,0.129l0.345,0.199c0.07,0.038 0.154,0.038 0.224,0l14.318,-8.267c0.06,0 0.052,-0.095 0,-0.129l-0.345,-0.198c-0.068,-0.04 -0.151,-0.046 -0.224,-0.018Z" style="fill:#3a2c6d;fill-rule:nonzero;"/><path id="_Контур_18_" serif:id="_Контур_18" d="M81.126,280.008l0.095,0.052l2.474,1.431l4.396,-2.543l0.095,-0.052l-2.569,-1.483l-4.491,2.595Z" style="fill:#bfbfbf;fill-rule:nonzero;"/><path id="_Контур_19_" serif:id="_Контур_19" d="M81.221,280.06l2.474,1.431l4.396,-2.543l-2.474,-1.423l-4.396,2.535Z" style="fill:#e5e5e5;fill-rule:nonzero;"/><path id="_Контур_20_" serif:id="_Контур_20" d="M74.066,283.344l0,0.215c-0.009,0.327 0.169,0.631 0.457,0.785l8.715,5.034c0.139,0.078 0.296,0.12 0.457,0.121c0.157,-0.002 0.311,-0.043 0.448,-0.121l15.783,-9.111c0.278,-0.163 0.449,-0.463 0.448,-0.785l0,-0.181l-16.679,9.594l-9.629,-5.551Z" style="fill:#e5e5e5;fill-rule:nonzero;"/><path id="_Контур_21_" serif:id="_Контур_21" d="M83.944,289.033c0.303,0.116 0.641,0.09 0.923,-0.069l15.714,-9.077c0.277,-0.158 0.468,-0.434 0.517,-0.75l1.724,-10.249c0.004,-0.06 0.004,-0.12 0,-0.181c0.001,-0.283 -0.111,-0.556 -0.31,-0.758l-16.326,9.43c-0.196,0.125 -0.333,0.324 -0.38,0.552l-1.862,11.102Z" style="fill:#f4f4f4;fill-rule:nonzero;"/><path id="_Контур_22_" serif:id="_Контур_22" d="M83.695,288.895l0.103,0.069l0.146,0.069l1.862,-11.102c0.047,-0.228 0.184,-0.427 0.38,-0.552l16.334,-9.43c-0.067,-0.064 -0.142,-0.119 -0.224,-0.164l-16.378,9.482c-0.203,0.117 -0.342,0.32 -0.379,0.552l-1.844,11.076Z" style="fill:#e5e5e5;fill-rule:nonzero;"/></g></g><path id="_Контур_23_" serif:id="_Контур_23" d="M71.833,245.002c0,0 0.199,3.905 0.113,4.25c-0.087,0.345 -1.793,1.491 -2.285,1.896c-0.491,0.406 2.698,3.56 4.25,4.31c1.551,0.75 6.473,-1.163 6.56,-3.586c0.086,-2.422 -0.862,-4.447 -1.595,-4.551c-0.733,-0.103 -7.043,-2.319 -7.043,-2.319Z" style="fill:#ffcea9;fill-rule:nonzero;"/><path id="_Контур_24_" serif:id="_Контур_24" d="M71.402,249.924c0,0 2.836,4.224 6.784,4.621c1.25,-1.233 1.362,-5.603 -0.362,-7c0,0 1.586,-1.275 2.673,-1.026c1.165,0.705 2.033,1.812 2.439,3.112c1.005,2.903 1.478,5.963 1.396,9.034c-0.06,4.138 0,14.611 0,14.611c-0.463,2.512 -1.983,4.708 -4.172,6.025c-2.849,1.601 -6.202,2.063 -9.378,1.293c-2,-0.465 -2.75,-1.586 -3.448,-3.043c0.181,-2.896 1.327,-8.87 0.862,-12.524c-0.466,-3.655 -1.25,-6.371 -1.457,-9.327c-0.207,-2.957 0.397,-2.888 1.871,-3.94c0.886,-0.677 1.819,-1.29 2.792,-1.836Z" style="fill:#f4f4f4;fill-rule:nonzero;"/><path id="_Контур_25_" serif:id="_Контур_25" d="M75.937,283.559c-0.711,-0.47 -1.451,-0.893 -2.216,-1.267c-0.717,-0.224 -1.368,-0.621 -1.896,-1.155c-0.698,-0.681 -1.836,-3.249 -2.647,-5.758c-0.814,-2.829 -1.138,-5.776 -0.956,-8.715c0.344,-3.517 1.612,-8.439 1.931,-10.464c0.318,-2.026 -0.328,-2.836 -1.268,-3.578c-1.112,-0.862 -2.637,-0.491 -3.448,2.345c-1.043,3.926 -1.644,7.957 -1.793,12.016c-0.041,3.011 0.413,6.007 1.345,8.87c0.846,2.452 1.983,4.793 3.388,6.974c0.388,0.655 0.517,1.232 1.103,2.586c0.572,1.341 1.459,2.524 2.586,3.448c0.991,0.715 1.466,0.862 1.724,0.681c0.259,-0.181 0.233,-0.492 -0.181,-0.862c-0.707,-0.548 -1.309,-1.22 -1.776,-1.983c-0.466,-0.763 0.862,0.862 1.44,1.345c0.503,0.424 1.06,0.78 1.655,1.06c0.586,0.259 1.388,-0.233 0.974,-0.629c-0.414,-0.397 -0.862,-0.578 -1.655,-1.302c-0.445,-0.375 -0.841,-0.803 -1.181,-1.276c0.577,0.437 1.188,0.827 1.828,1.164c0.502,0.309 1.082,0.467 1.672,0.457c0.31,0 0.681,-0.44 0.103,-0.862c-0.785,-0.413 -1.52,-0.917 -2.189,-1.5c-0.638,-0.629 -1,-1.164 -0.862,-1.172c0.138,-0.009 0.526,0.379 1.267,0.612c0.741,0.233 1.543,0 1.638,-0.379c0.095,-0.38 0.112,-0.311 -0.586,-0.656Z" style="fill:#ffcea9;fill-rule:nonzero;"/><path id="_Контур_26_" serif:id="_Контур_26" d="M80.669,239.184c-0.466,-3.034 -2.655,-5.327 -5.775,-5.172c-3.158,0.203 -5.646,2.857 -5.646,6.021c0,1.973 0.967,3.825 2.585,4.952c0.108,0.457 0.27,0.9 0.483,1.319c1.104,1.293 4.448,2.095 5.405,1.957c1.166,-0.103 2.157,-0.912 2.491,-2.035c1.034,-2.361 0.672,-5.542 0.457,-7.042Z" style="fill:#ffcea9;fill-rule:nonzero;"/><path d="M71.833,245.002l0.285,-2.646c0,0 -2.155,-5.594 2.948,-4.517c3.362,0.707 4.206,1.017 5.232,-1.241c1.026,-2.259 -2.586,-4.31 -6.896,-3.733c-3.052,0.325 -5.376,2.965 -5.31,6.034c0.13,1.655 0.569,5.06 3.741,6.103Z" style="fill:#3a2c6d;fill-rule:nonzero;"/><path d="M63.101,260.174c0,0 2.785,2.767 6.077,1.973c0.475,-0.318 1.604,-6.792 1.604,-6.792c0,0 0,-3.595 -2.75,-3.5c-2.75,0.095 -4.931,8.319 -4.931,8.319Z" style="fill:#ededed;fill-rule:nonzero;"/><path d="M84.126,254.803c0.778,-0.034 1.515,-0.364 2.06,-0.922c-0.112,-1.448 -1.966,-6.956 -5.698,-7.362c1.016,0.709 1.82,1.681 2.327,2.811c0.578,1.788 1.016,3.618 1.311,5.473Z" style="fill:#ededed;fill-rule:nonzero;"/></g></g></g></svg>