<?xml version="1.0" encoding="UTF-8"?>
<svg width="1440px" height="570px" viewBox="0 0 1440 570" version="1.1" xmlns="http://www.w3.org/2000/svg" xmlns:xlink="http://www.w3.org/1999/xlink">
    <!-- Generator: Sketch 64 (93537) - https://sketch.com -->
    <title>编组 12</title>
    <desc>Created with Sketch.</desc>
    <defs>
        <linearGradient x1="50%" y1="0%" x2="50%" y2="82.3202186%" id="linearGradient-1">
            <stop stop-color="#FAACA8" offset="0%"></stop>
            <stop stop-color="#FFE4DF" offset="100%"></stop>
        </linearGradient>
        <linearGradient x1="50%" y1="0%" x2="50%" y2="82.3202186%" id="linearGradient-2">
            <stop stop-color="#FAACA8" offset="0%"></stop>
            <stop stop-color="#FFE4DF" offset="100%"></stop>
        </linearGradient>
        <linearGradient x1="50%" y1="100%" x2="50%" y2="3.061617e-15%" id="linearGradient-3">
            <stop stop-color="#FCFAFA" offset="0%"></stop>
            <stop stop-color="#FDE1DE" offset="100%"></stop>
        </linearGradient>
        <linearGradient x1="50%" y1="0%" x2="50%" y2="82.3202186%" id="linearGradient-4">
            <stop stop-color="#FAACA8" offset="0%"></stop>
            <stop stop-color="#FFE4DF" offset="100%"></stop>
        </linearGradient>
        <linearGradient x1="50%" y1="0%" x2="50%" y2="82.3202186%" id="linearGradient-5">
            <stop stop-color="#FAACA8" offset="0%"></stop>
            <stop stop-color="#FFE4DF" offset="100%"></stop>
        </linearGradient>
        <polygon id="path-6" points="15.202601 0 46.4079398 0 54.4093087 270.232673 0 270.232673"></polygon>
        <path d="M16.8028747,0 L17.6808697,44.772 L20.8048231,44.7722772 C21.6879319,44.7722772 22.403833,45.4881783 22.403833,46.3712871 C22.403833,47.2543959 21.6879319,47.970297 20.8048231,47.970297 L17.7438697,47.97 L18.3928697,81.057 L24.0217791,85.1530425 L24.0217791,90.0493086 L29.194807,90.0493086 L32.7976257,93.7380764 L27.841316,104.789115 L22.8661985,109.963253 L22.8661985,115.636038 L19.2358697,115.636 L20.8035592,251.844059 L12.8021903,251.844059 L14.3688697,115.636 L10.3862968,115.636038 L10.3862968,109.963253 L5.41117939,104.789115 L0.4548697,93.7380764 L4.05768835,90.0493086 L9.23071624,90.0493086 L9.23071624,85.1530425 L15.2168697,80.796 L15.8608697,47.97 L12.8009264,47.970297 C11.9178176,47.970297 11.2019165,47.2543959 11.2019165,46.3712871 C11.2019165,45.4881783 11.9178176,44.7722772 12.8009264,44.7722772 L15.9238697,44.772 L16.8028747,0 Z" id="path-8"></path>
        <linearGradient x1="50%" y1="0%" x2="50%" y2="100%" id="linearGradient-10">
            <stop stop-color="#FAACA8" offset="0%"></stop>
            <stop stop-color="#FFE4DF" offset="100%"></stop>
        </linearGradient>
        <linearGradient x1="50%" y1="0%" x2="50%" y2="100%" id="linearGradient-11">
            <stop stop-color="#FAACA8" offset="0%"></stop>
            <stop stop-color="#FFE4DF" offset="100%"></stop>
        </linearGradient>
        <linearGradient x1="50%" y1="100%" x2="50%" y2="3.061617e-15%" id="linearGradient-12">
            <stop stop-color="#FCF2F2" offset="0%"></stop>
            <stop stop-color="#FDE1DE" offset="100%"></stop>
        </linearGradient>
        <linearGradient x1="50%" y1="100%" x2="50%" y2="3.061617e-15%" id="linearGradient-13">
            <stop stop-color="#FCF2F2" offset="0%"></stop>
            <stop stop-color="#FDE1DE" offset="100%"></stop>
        </linearGradient>
    </defs>
    <g id="Page-1" stroke="none" stroke-width="1" fill="none" fill-rule="evenodd" opacity="0.5">
        <g id="flutter-官网" transform="translate(0.000000, -464.000000)">
            <g id="编组-16" transform="translate(-469.000000, 408.000000)">
                <g id="编组-12" transform="translate(1057.000000, 341.000000) scale(-1, 1) translate(-1057.000000, -341.000000) translate(0.000000, 56.000000)">
                    <g id="Group-28-Copy" opacity="0.200000003" transform="translate(289.000000, 0.000000)">
                        <g id="Group-2" opacity="0.400000006" transform="translate(0.000000, 65.547030)" fill-rule="nonzero">
                            <rect id="Rectangle-Copy-49" fill="url(#linearGradient-1)" x="30.4052019" y="0" width="37.6064339" height="205.472772"></rect>
                            <rect id="Rectangle-Copy-50" fill="url(#linearGradient-1)" x="62.4106776" y="31.980198" width="37.6064339" height="205.472772"></rect>
                            <rect id="Rectangle" fill="url(#linearGradient-2)" x="0" y="99.1386139" width="37.6064339" height="135.116337"></rect>
                        </g>
                        <path d="M945.182235,112.376337 C985.497072,113.653256 1035.69174,136.366936 1095.76624,180.517378 C1144.09775,148.677569 1181.32407,132.605489 1207.44813,132.302971 C1247.51003,131.839053 1308.02732,177.942683 1389,270.613861 L1074.79712,249.396881 L682.479124,258.621287 L715.455427,221.301685 C811.462772,146.87483 888.038375,110.566381 945.182235,112.376337 Z" id="Combined-Shape" fill="url(#linearGradient-3)" fill-rule="nonzero"></path>
                        <g id="Group-7" opacity="0.400000006" transform="translate(556.000000, 65.000000)" fill-rule="nonzero">
                            <rect id="Rectangle-Copy-2" fill="url(#linearGradient-4)" x="38.4914442" y="0.547029703" width="37.6064339" height="167.096535"></rect>
                            <polygon id="Rectangle-Copy" fill="url(#linearGradient-5)" points="16.0876112 29.3292079 51.2936345 29.3292079 51.2936345 234.80198 0.0848733744 234.80198 0.0848733744 66.3466856"></polygon>
                        </g>
                        <g id="Group-24" transform="translate(397.668036, 23.173267)" fill-rule="nonzero">
                            <rect id="Rectangle" fill="#F47470" x="20.0034223" y="121.524752" width="12.0020534" height="4.7970297"></rect>
                            <rect id="Rectangle-Copy-21" fill="#F47470" x="20.0034223" y="134.316832" width="12.0020534" height="4.7970297"></rect>
                            <rect id="Rectangle-Copy-23" fill="#F47470" x="20.0034223" y="147.108911" width="12.0020534" height="4.7970297"></rect>
                            <rect id="Rectangle-Copy-22" fill="#F47470" x="20.0034223" y="159.90099" width="12.0020534" height="4.7970297"></rect>
                            <rect id="Rectangle-Copy-25" fill="#F47470" x="20.0034223" y="172.693069" width="12.0020534" height="4.7970297"></rect>
                            <rect id="Rectangle" fill="#F47470" x="20.8035592" y="65.5594059" width="9.60164271" height="30.3811881"></rect>
                            <rect id="Rectangle-Copy-27" fill="#F47470" x="22.403833" y="221.462871" width="6.40109514" height="30.3811881"></rect>
                            <polygon id="Rectangle-Copy-28" fill="#F47470" transform="translate(39.177984, 232.219797) rotate(-30.000000) translate(-39.177984, -232.219797) " points="35.9728693 217.025106 42.3727006 217.027296 42.3830989 247.414487 35.9832676 247.412298"></polygon>
                            <polygon id="Rectangle-Copy-29" fill="#F47470" transform="translate(10.373056, 233.019302) rotate(-330.000000) translate(-10.373056, -233.019302) " points="7.17833949 217.826801 13.5781707 217.824611 13.5677725 248.211803 7.16794121 248.213992"></polygon>
                            <rect id="Rectangle-Copy-24" fill="#F47470" x="20.0034223" y="185.485149" width="12.0020534" height="4.7970297"></rect>
                            <polygon id="Rectangle-Copy-26" fill="#F47470" points="24.8042437 0 26.4045175 0 28.0047912 59.1633663 23.2039699 59.1633663"></polygon>
                            <rect id="Rectangle" fill="#F47470" x="17.6030116" y="107.933168" width="4.80082136" height="95.9405941"></rect>
                            <rect id="Rectangle-Copy-20" fill="#F47470" x="28.8049281" y="107.933168" width="4.80082136" height="95.9405941"></rect>
                            <ellipse id="Oval" fill="#F05049" cx="25.6043806" cy="59.9628713" rx="8.00136893" ry="7.9950495"></ellipse>
                            <ellipse id="Oval-Copy-4" fill="#F05049" cx="25.6043806" cy="102.336634" rx="13.6023272" ry="13.5915842"></ellipse>
                            <ellipse id="Oval-Copy-5" fill="#F05049" cx="25.6043806" cy="208.670792" rx="16.0027379" ry="15.990099"></ellipse>
                        </g>
                        <g id="Group-25" transform="translate(486.850787, 51.967822)" fill-rule="nonzero">
                            <rect id="Rectangle" fill="#F2928F" x="0" y="0" width="43.2073922" height="218.264851"></rect>
                            <rect id="Rectangle" fill="#F47470" x="21.6036961" y="0" width="21.6036961" height="218.264851"></rect>
                            <polygon id="Rectangle-Copy-30" fill="#FFAAA7" points="0 -4.26325641e-14 43.2073922 -4.26325641e-14 21.4497013 106.334158"></polygon>
                            <polygon id="Rectangle" fill="#FFC6C4" points="7.20123203 6.3960396 36.0061602 6.3960396 32.8056126 23.9851485 10.4017796 23.9851485"></polygon>
                        </g>
                        <g id="Rectangle-+-Rectangle-Copy-31-+-Rectangle-Copy-33-+-Rectangle-Copy-32-+-Rectangle-Copy-37-+-Rectangle-Copy-36-+-Rectangle-Copy-35-+-Rectangle-Copy-34-+-Rectangle-Copy-45-+-Rectangle-Copy-44-+-Rectangle-Copy-43-+-Rectangle-Copy-42-+-Rectangle-Copy-41-+-Rectangle-Copy-40-+-Rectangle-Copy-39-+-Rectangle-Copy-38-Mask" transform="translate(296.435318, 0.000000)">
                            <mask id="mask-7" fill="white">
                                <use xlink:href="#path-6"></use>
                            </mask>
                            <use id="Mask" fill="#F09895" fill-rule="nonzero" xlink:href="#path-6"></use>
                            <rect id="Rectangle" fill="#F47470" fill-rule="nonzero" mask="url(#mask-7)" x="-5.60095825" y="0" width="69.6119097" height="8.79455446"></rect>
                            <rect id="Rectangle-Copy-31" fill="#F47470" fill-rule="nonzero" mask="url(#mask-7)" x="-5.60095825" y="16.789604" width="69.6119097" height="8.79455446"></rect>
                            <rect id="Rectangle-Copy-33" fill="#F47470" fill-rule="nonzero" mask="url(#mask-7)" x="-5.60095825" y="33.5792079" width="69.6119097" height="8.79455446"></rect>
                            <rect id="Rectangle-Copy-32" fill="#F47470" fill-rule="nonzero" mask="url(#mask-7)" x="-5.60095825" y="50.3688119" width="69.6119097" height="8.79455446"></rect>
                            <rect id="Rectangle-Copy-37" fill="#F47470" fill-rule="nonzero" mask="url(#mask-7)" x="-5.60095825" y="67.1584158" width="69.6119097" height="8.79455446"></rect>
                            <rect id="Rectangle-Copy-36" fill="#F47470" fill-rule="nonzero" mask="url(#mask-7)" x="-5.60095825" y="83.9480198" width="69.6119097" height="8.79455446"></rect>
                            <rect id="Rectangle-Copy-35" fill="#F47470" fill-rule="nonzero" mask="url(#mask-7)" x="-5.60095825" y="100.737624" width="69.6119097" height="8.79455446"></rect>
                            <rect id="Rectangle-Copy-34" fill="#F47470" fill-rule="nonzero" mask="url(#mask-7)" x="-5.60095825" y="117.527228" width="69.6119097" height="8.79455446"></rect>
                            <rect id="Rectangle-Copy-45" fill="#F47470" fill-rule="nonzero" mask="url(#mask-7)" x="-5.60095825" y="134.316832" width="69.6119097" height="8.79455446"></rect>
                            <rect id="Rectangle-Copy-44" fill="#F47470" fill-rule="nonzero" mask="url(#mask-7)" x="-5.60095825" y="151.106436" width="69.6119097" height="8.79455446"></rect>
                            <rect id="Rectangle-Copy-43" fill="#F47470" fill-rule="nonzero" mask="url(#mask-7)" x="-5.60095825" y="167.89604" width="69.6119097" height="8.79455446"></rect>
                            <rect id="Rectangle-Copy-42" fill="#F47470" fill-rule="nonzero" mask="url(#mask-7)" x="-5.60095825" y="184.685644" width="69.6119097" height="8.79455446"></rect>
                            <rect id="Rectangle-Copy-41" fill="#F47470" fill-rule="nonzero" mask="url(#mask-7)" x="-5.60095825" y="201.475248" width="69.6119097" height="8.79455446"></rect>
                            <rect id="Rectangle-Copy-40" fill="#F47470" fill-rule="nonzero" mask="url(#mask-7)" x="-5.60095825" y="218.264851" width="69.6119097" height="8.79455446"></rect>
                            <rect id="Rectangle-Copy-39" fill="#F47470" fill-rule="nonzero" mask="url(#mask-7)" x="-5.60095825" y="235.054455" width="69.6119097" height="8.79455446"></rect>
                            <rect id="Rectangle-Copy-38" fill="#F47470" fill-rule="nonzero" mask="url(#mask-7)" x="-5.60095825" y="251.844059" width="69.6119097" height="8.79455446"></rect>
                            <path d="M15.9522672,-3.43280294 C19.4851571,52.5949863 23.2859311,88.5342769 27.354589,104.385069 C33.457576,128.161257 58.6416102,276.089546 58.6416102,303.929351 C58.6416102,322.48922 29.9459209,321.033458 -27.4454579,299.562063 L-14.2926672,0 L15.9522672,-3.43280294 Z" id="Path-71" fill="#F05049" fill-rule="nonzero" opacity="0.400000006" mask="url(#mask-7)"></path>
                        </g>
                        <g id="Group-21-Copy" transform="translate(161.617385, 40.762376)" fill-rule="nonzero">
                            <g id="Group-20-Copy-7" transform="translate(0.000000, 171.094059)">
                                <rect id="Rectangle" fill="#F2928F" x="18.4031485" y="24.7846535" width="44.807666" height="19.1881188"></rect>
                                <rect id="Rectangle" fill="#FFAAA7" x="20.8035592" y="27.9826733" width="40.0068446" height="12.7920792"></rect>
                                <path d="M9.94993805,25.5841584 C9.94993805,24.5633604 6.63329204,23.3806606 1.03028697e-13,22.036059 L1.03028697e-13,22.036059 L81.613963,22.036059 C74.980671,23.3806606 71.664025,24.5633604 71.664025,25.5841584 Z" id="Combined-Shape" fill="#F05049"></path>
                                <path d="M-1.0658141e-14,22.036059 L-1.0658141e-14,19.08091 C3.20124301,19.4458963 7.41767378,18.733086 12.6492923,16.9424791 C14.9797866,16.1448293 16.8977387,13.1623528 18.4031485,7.9950495 L18.4031485,7.9950495 L39.2067077,0.323947727 L42.4072553,0.323947727 L62.4592155,7.9950495 C64.3648568,12.65607 66.4631988,15.6385466 68.7542417,16.9424791 C71.2548956,18.3657104 75.5414694,19.0785207 81.613963,19.08091 L81.613963,22.036059 L-1.0658141e-14,22.036059 Z" id="Combined-Shape" fill="#F47470"></path>
                            </g>
                            <g id="Group-20-Copy-6" transform="translate(0.000000, 135.915842)">
                                <rect id="Rectangle" fill="#F2928F" x="18.4031485" y="24.7846535" width="44.807666" height="19.1881188"></rect>
                                <rect id="Rectangle" fill="#FFAAA7" x="20.8035592" y="27.9826733" width="40.0068446" height="12.7920792"></rect>
                                <path d="M9.94993805,25.5841584 C9.94993805,24.5633604 6.63329204,23.3806606 1.03028697e-13,22.036059 L1.03028697e-13,22.036059 L81.613963,22.036059 C74.980671,23.3806606 71.664025,24.5633604 71.664025,25.5841584 Z" id="Combined-Shape" fill="#F05049"></path>
                                <path d="M-1.0658141e-14,22.036059 L-1.0658141e-14,19.08091 C3.20124301,19.4458963 7.41767378,18.733086 12.6492923,16.9424791 C14.9797866,16.1448293 16.8977387,13.1623528 18.4031485,7.9950495 L18.4031485,7.9950495 L39.2067077,0.323947727 L42.4072553,0.323947727 L62.4592155,7.9950495 C64.3648568,12.65607 66.4631988,15.6385466 68.7542417,16.9424791 C71.2548956,18.3657104 75.5414694,19.0785207 81.613963,19.08091 L81.613963,22.036059 L-1.0658141e-14,22.036059 Z" id="Combined-Shape" fill="#F47470"></path>
                            </g>
                            <g id="Group-20-Copy-5" transform="translate(0.000000, 99.138614)">
                                <rect id="Rectangle" fill="#F2928F" x="18.4031485" y="24.7846535" width="44.807666" height="19.1881188"></rect>
                                <rect id="Rectangle" fill="#FFAAA7" x="20.8035592" y="27.9826733" width="40.0068446" height="12.7920792"></rect>
                                <path d="M9.94993805,25.5841584 C9.94993805,24.5633604 6.63329204,23.3806606 1.03028697e-13,22.036059 L1.03028697e-13,22.036059 L81.613963,22.036059 C74.980671,23.3806606 71.664025,24.5633604 71.664025,25.5841584 Z" id="Combined-Shape" fill="#F05049"></path>
                                <path d="M-1.0658141e-14,22.036059 L-1.0658141e-14,19.08091 C3.20124301,19.4458963 7.41767378,18.733086 12.6492923,16.9424791 C14.9797866,16.1448293 16.8977387,13.1623528 18.4031485,7.9950495 L18.4031485,7.9950495 L39.2067077,0.323947727 L42.4072553,0.323947727 L62.4592155,7.9950495 C64.3648568,12.65607 66.4631988,15.6385466 68.7542417,16.9424791 C71.2548956,18.3657104 75.5414694,19.0785207 81.613963,19.08091 L81.613963,22.036059 L-1.0658141e-14,22.036059 Z" id="Combined-Shape" fill="#F47470"></path>
                            </g>
                            <g id="Group-20-Copy" transform="translate(0.000000, 63.960396)">
                                <rect id="Rectangle" fill="#F2928F" x="18.4031485" y="24.7846535" width="44.807666" height="19.1881188"></rect>
                                <rect id="Rectangle" fill="#FFAAA7" x="20.8035592" y="27.9826733" width="40.0068446" height="12.7920792"></rect>
                                <path d="M9.94993805,25.5841584 C9.94993805,24.5633604 6.63329204,23.3806606 1.03028697e-13,22.036059 L1.03028697e-13,22.036059 L81.613963,22.036059 C74.980671,23.3806606 71.664025,24.5633604 71.664025,25.5841584 Z" id="Combined-Shape" fill="#F05049"></path>
                                <path d="M-1.0658141e-14,22.036059 L-1.0658141e-14,19.08091 C3.20124301,19.4458963 7.41767378,18.733086 12.6492923,16.9424791 C14.9797866,16.1448293 16.8977387,13.1623528 18.4031485,7.9950495 L18.4031485,7.9950495 L39.2067077,0.323947727 L42.4072553,0.323947727 L62.4592155,7.9950495 C64.3648568,12.65607 66.4631988,15.6385466 68.7542417,16.9424791 C71.2548956,18.3657104 75.5414694,19.0785207 81.613963,19.08091 L81.613963,22.036059 L-1.0658141e-14,22.036059 Z" id="Combined-Shape" fill="#F47470"></path>
                            </g>
                            <g id="Group-20" transform="translate(0.000000, 27.982673)">
                                <rect id="Rectangle" fill="#F2928F" x="18.4031485" y="24.7846535" width="44.807666" height="19.1881188"></rect>
                                <rect id="Rectangle" fill="#FFAAA7" x="20.8035592" y="27.9826733" width="40.0068446" height="12.7920792"></rect>
                                <path d="M9.94993805,25.5841584 C9.94993805,24.5633604 6.63329204,23.3806606 1.03028697e-13,22.036059 L1.03028697e-13,22.036059 L81.613963,22.036059 C74.980671,23.3806606 71.664025,24.5633604 71.664025,25.5841584 Z" id="Combined-Shape" fill="#F05049"></path>
                                <path d="M-1.0658141e-14,22.036059 L-1.0658141e-14,19.08091 C7.21376021,18.053917 13.4364496,16.6451171 18.6680681,14.8545101 C23.8996866,13.0639032 30.7458998,8.22038241 39.2067077,0.323947727 L39.2067077,0.323947727 L42.4072553,0.323947727 C50.8680632,8.22038241 57.7142764,13.0639032 62.9458949,14.8545101 C68.1775135,16.6451171 74.4002028,18.053917 81.613963,19.08091 L81.613963,22.036059 L-1.0658141e-14,22.036059 Z" id="Combined-Shape" fill="#F47470"></path>
                            </g>
                            <rect id="Rectangle" fill="#F05049" x="39.2067077" y="0" width="3.20054757" height="25.5841584" rx="1.60027379"></rect>
                            <rect id="Rectangle" fill="#F47470" x="37.6064339" y="21.5866337" width="6.40109514" height="9.59405941"></rect>
                        </g>
                        <g id="Group-17-Copy" transform="translate(76.806297, 14.378713)">
                            <g id="Rectangle-+-Rectangle-Copy-47-Mask">
                                <mask id="mask-9" fill="white">
                                    <use xlink:href="#path-8"></use>
                                </mask>
                                <use id="Mask" fill="#F47470" fill-rule="nonzero" xlink:href="#path-8"></use>
                                <polygon id="Rectangle" fill="#F05049" fill-rule="nonzero" mask="url(#mask-9)" points="8.80150582 109.967116 24.9257649 109.967116 24.9257649 115.597271 8.80150582 115.693483"></polygon>
                                <polygon id="Rectangle-Copy-48" fill="#F05049" fill-rule="nonzero" mask="url(#mask-9)" points="8.80150582 85.1465256 25.0382151 85.1465256 24.8042437 90.0368581 8.80150582 90.0368581"></polygon>
                                <rect id="Rectangle-Copy-47" fill="#F05049" fill-rule="nonzero" mask="url(#mask-9)" x="-1.60027379" y="93.5420792" width="37.6064339" height="11.1930693"></rect>
                            </g>
                        </g>
                        <g id="Group-22" transform="translate(900.000000, 83.000000)" fill-rule="nonzero">
                            <g id="Group-19-Copy" transform="translate(195.233402, 0.000000)">
                                <g id="Group-18-Copy" transform="translate(114.419576, 77.951733) scale(-1, 1) translate(-114.419576, -77.951733) ">
                                    <path d="M212.836413,0.0745940156 L160.420886,0.0745940156 C156.103906,5.58524593 150.443111,9.12931744 143.4385,10.7068085 C136.433889,12.2842996 128.777387,13.1111616 120.468995,13.1873944 L120.468995,15.4121097 L212.836413,15.4121097 L212.836413,0.0745940156 Z" id="Path-64" fill="#F47470"></path>
                                    <polygon id="Path-65" fill="#F05049" points="122.37858 15.4121097 139.766377 23.313759 212.836413 23.313759 212.836413 15.4121097"></polygon>
                                    <rect id="Rectangle" fill="#F2928F" x="137.623546" y="17.5891089" width="75.2128679" height="3.1980198"></rect>
                                    <rect id="Rectangle" fill="#F05049" x="139.223819" y="20.7871287" width="73.6125941" height="10.3935644"></rect>
                                    <rect id="Rectangle" fill="#F2928F" x="139.223819" y="20.7871287" width="3.20054757" height="10.3935644"></rect>
                                    <rect id="Rectangle-Copy-3" fill="#F2928F" x="168.028747" y="20.7871287" width="3.20054757" height="10.3935644"></rect>
                                    <rect id="Rectangle-Copy-4" fill="#F2928F" x="196.833676" y="20.7871287" width="3.20054757" height="10.3935644"></rect>
                                    <path d="M212.836413,31.1806931 L139.223819,31.1806931 C137.150227,33.9085918 133.251137,35.7448254 127.526549,36.689394 C121.801961,37.6339626 112.296112,38.2016172 99.0090023,38.3923577 L99.0090023,40.2685998 L212.836413,40.2685998 L212.836413,31.1806931 Z" id="Path-66" fill="#F47470"></path>
                                    <polygon id="Path-67" fill="#F05049" points="212.836413 40.2685998 99.0090023 40.2685998 120.732738 50.3688119 212.836413 50.3688119"></polygon>
                                    <rect id="Rectangle" fill="#F2928F" x="124.821355" y="50.3688119" width="3.20054757" height="25.5841584"></rect>
                                    <rect id="Rectangle-Copy-5" fill="#F2928F" x="137.623546" y="50.3688119" width="3.20054757" height="25.5841584"></rect>
                                    <rect id="Rectangle-Copy-6" fill="#F2928F" x="168.028747" y="50.3688119" width="3.20054757" height="25.5841584"></rect>
                                    <rect id="Rectangle-Copy-10" fill="#F2928F" x="196.833676" y="50.3688119" width="3.20054757" height="25.5841584"></rect>
                                    <rect id="Rectangle" fill="#F05049" x="140.824093" y="50.3688119" width="27.2046543" height="25.5841584"></rect>
                                    <rect id="Rectangle" fill="#E34840" x="144.824778" y="55.1658416" width="19.2032854" height="11.1930693"></rect>
                                    <rect id="Rectangle-Copy-12" fill="#F05049" x="171.229295" y="50.3688119" width="27.2046543" height="25.5841584"></rect>
                                    <rect id="Rectangle-Copy-11" fill="#E34840" x="173.629706" y="55.1658416" width="19.2032854" height="11.1930693"></rect>
                                    <rect id="Rectangle-Copy-14" fill="#F05049" x="200.034223" y="50.3688119" width="27.2046543" height="25.5841584"></rect>
                                    <rect id="Rectangle" fill="#E34840" x="96.816564" y="75.9529703" width="116.819986" height="11.1930693"></rect>
                                    <rect id="Rectangle" fill="#F05049" x="96.816564" y="87.1460396" width="116.019849" height="68.7574257"></rect>
                                    <rect id="Rectangle" fill="#E34840" x="120.020534" y="115.128713" width="19.2032854" height="25.5841584" rx="9.60164271"></rect>
                                    <rect id="Rectangle-Copy-15" fill="#E34840" x="157.626968" y="110.331683" width="19.2032854" height="35.1782178" rx="9.60164271"></rect>
                                    <rect id="Rectangle-Copy-16" fill="#E34840" x="194.433265" y="102.336634" width="34.4058864" height="40.7747525" rx="17.2"></rect>
                                    <rect id="Rectangle" fill="#E34840" x="0" y="99.1386139" width="96.816564" height="11.1930693"></rect>
                                    <rect id="Rectangle" fill="#F05049" x="0" y="110.331683" width="96.816564" height="35.1782178"></rect>
                                    <rect id="Rectangle-Copy-13" fill="#E34840" x="204.034908" y="55.1658416" width="19.2032854" height="11.1930693"></rect>
                                </g>
                            </g>
                            <g id="Group-18-Copy">
                                <path d="M212.836413,0.0745940156 L160.420886,0.0745940156 C156.103906,5.58524593 150.443111,9.12931744 143.4385,10.7068085 C136.433889,12.2842996 128.777387,13.1111616 120.468995,13.1873944 L120.468995,15.4121097 L212.836413,15.4121097 L212.836413,0.0745940156 Z" id="Path-64" fill="#F47470"></path>
                                <polygon id="Path-65" fill="#F05049" points="122.37858 15.4121097 139.766377 23.313759 212.836413 23.313759 212.836413 15.4121097"></polygon>
                                <rect id="Rectangle" fill="#F2928F" x="137.623546" y="17.5891089" width="75.2128679" height="3.1980198"></rect>
                                <rect id="Rectangle" fill="#F05049" x="139.223819" y="20.7871287" width="73.6125941" height="10.3935644"></rect>
                                <rect id="Rectangle" fill="#F2928F" x="139.223819" y="20.7871287" width="3.20054757" height="10.3935644"></rect>
                                <rect id="Rectangle-Copy-3" fill="#F2928F" x="168.028747" y="20.7871287" width="3.20054757" height="10.3935644"></rect>
                                <rect id="Rectangle-Copy-4" fill="#F2928F" x="196.833676" y="20.7871287" width="3.20054757" height="10.3935644"></rect>
                                <path d="M212.836413,31.1806931 L139.223819,31.1806931 C137.150227,33.9085918 133.251137,35.7448254 127.526549,36.689394 C121.801961,37.6339626 112.296112,38.2016172 99.0090023,38.3923577 L99.0090023,40.2685998 L212.836413,40.2685998 L212.836413,31.1806931 Z" id="Path-66" fill="#F47470"></path>
                                <polygon id="Path-67" fill="#F05049" points="212.836413 40.2685998 99.0090023 40.2685998 120.732738 50.3688119 212.836413 50.3688119"></polygon>
                                <rect id="Rectangle" fill="#F2928F" x="124.821355" y="50.3688119" width="3.20054757" height="25.5841584"></rect>
                                <rect id="Rectangle-Copy-5" fill="#F2928F" x="137.623546" y="50.3688119" width="3.20054757" height="25.5841584"></rect>
                                <rect id="Rectangle-Copy-6" fill="#F2928F" x="168.028747" y="50.3688119" width="3.20054757" height="25.5841584"></rect>
                                <rect id="Rectangle" fill="#F05049" x="140.824093" y="50.3688119" width="27.2046543" height="25.5841584"></rect>
                                <rect id="Rectangle" fill="#E34840" x="144.824778" y="55.1658416" width="19.2032854" height="11.1930693"></rect>
                                <rect id="Rectangle-Copy-12" fill="#F05049" x="171.229295" y="50.3688119" width="27.2046543" height="25.5841584"></rect>
                                <rect id="Rectangle-Copy-11" fill="#E34840" x="175.229979" y="55.1658416" width="19.2032854" height="11.1930693"></rect>
                                <rect id="Rectangle-Copy-10" fill="#F2928F" x="196.833676" y="50.3688119" width="3.20054757" height="25.5841584"></rect>
                                <rect id="Rectangle-Copy-14" fill="#F05049" x="200.034223" y="50.3688119" width="27.2046543" height="25.5841584"></rect>
                                <rect id="Rectangle" fill="#E34840" x="96.816564" y="75.9529703" width="116.819986" height="11.1930693"></rect>
                                <rect id="Rectangle" fill="#F05049" x="96.816564" y="87.1460396" width="116.019849" height="68.7574257"></rect>
                                <rect id="Rectangle" fill="#E34840" x="120.020534" y="115.128713" width="19.2032854" height="25.5841584" rx="9.60164271"></rect>
                                <rect id="Rectangle-Copy-15" fill="#E34840" x="157.626968" y="110.331683" width="19.2032854" height="35.1782178" rx="9.60164271"></rect>
                                <rect id="Rectangle-Copy-16" fill="#E34840" x="194.433265" y="102.336634" width="34.4058864" height="40.7747525" rx="17.2"></rect>
                                <rect id="Rectangle" fill="#E34840" x="-7.10542736e-15" y="114.138614" width="96.816564" height="11.1930693"></rect>
                                <rect id="Rectangle" fill="#F05049" x="-7.10542736e-15" y="125.331683" width="96.816564" height="35.1782178"></rect>
                                <rect id="Rectangle-Copy-13" fill="#E34840" x="203.234771" y="70.1658416" width="19.2032854" height="11.1930693"></rect>
                            </g>
                            <rect id="Rectangle-Copy-10" fill="#F2928F" x="224.838467" y="50.3688119" width="3.20054757" height="25.5841584"></rect>
                        </g>
                        <path d="M1186.02353,215.915112 C1184.5611,217.444563 1182.5916,218.954221 1180.11505,220.444085 L1174.60309,220.444085 L1174.60309,235.424697 C1176.4206,238.961342 1177.7425,241.028915 1186.02353,242.298775 C1184.5611,243.828226 1182.5916,245.337884 1180.11505,246.827748 L1174.60309,246.827748 L1174.60309,261.80836 L1159.88635,261.80836 L1159.88633,261.708921 L1145.17677,261.709595 L1145.17677,246.728983 L1139.66481,246.728983 C1137.18826,245.239118 1135.21876,243.729461 1133.75633,242.200009 C1141.897,240.951673 1143.31245,238.932435 1145.08475,235.504498 L1145.17677,235.325931 L1145.17677,220.345319 L1139.66481,220.345319 C1137.18826,218.855455 1135.21876,217.345797 1133.75633,215.816346 C1155.09869,212.543589 1159.80022,199.717998 1159.89212,199.461814 L1159.89351,199.457921 L1159.89333,199.576921 L1159.90867,199.616676 C1160.27566,200.575169 1165.31928,212.740207 1186.02353,215.915112 Z" id="Combined-Shape" fill="url(#linearGradient-10)" fill-rule="nonzero"></path>
                        <path d="M1216.56225,245.829208 L1216.56225,228.898218 L1210.31896,228.898218 C1207.51381,227.214383 1205.28301,225.508178 1203.62654,223.779602 C1212.85741,222.367196 1214.45407,220.081613 1216.46461,216.199649 L1216.56225,216.010564 L1216.56225,199.079574 L1210.31896,199.079574 C1207.51381,197.395739 1205.28301,195.689534 1203.62654,193.960958 C1222.96449,191.002079 1230.24088,181.134346 1232.43157,177.156388 L1232.43147,175.472772 C1232.43147,175.472772 1232.54883,175.806554 1232.83134,176.386418 C1233.09547,175.845103 1233.21527,175.51824 1233.23003,175.477172 L1233.2316,175.472772 L1233.23151,177.156388 C1235.4222,181.134346 1242.69859,191.002079 1262.03653,193.960958 C1260.38007,195.689534 1258.14926,197.395739 1255.34411,199.079574 L1249.10082,199.079574 L1249.10082,216.010564 C1251.15949,220.007657 1252.65677,222.344415 1262.03653,223.779602 C1260.38007,225.508178 1258.14926,227.214383 1255.34411,228.898218 L1249.10082,228.898218 L1249.10082,245.829208 L1216.56225,245.829208 Z" id="Combined-Shape-Copy" fill="url(#linearGradient-11)" fill-rule="nonzero"></path>
                        <g id="Group-27" transform="translate(999.333333, 199.064356)" fill-rule="nonzero">
                            <g id="Group-26">
                                <path d="M15.202601,0.369665859 C15.6438196,9.08662439 10.7968953,15.8338672 0.661827958,20.6113943 C0.661827958,21.2796625 0.661827958,21.9093231 0.661827958,22.500376 L56.7129687,22.3861386 L56.7129687,0.369665859 L15.202601,0.369665859 Z" id="Path-72" fill="#F47470"></path>
                                <rect id="Rectangle" fill="#F05049" x="13.6023272" y="27.1831683" width="43.2073922" height="33.5792079"></rect>
                                <path d="M15.9226944,40.7747525 C14.8224724,44.5051335 10.8518541,47.2179344 4.01083938,48.9131552 C4.01083938,49.2270037 4.01083938,49.9800987 4.01083938,51.1724403 L56.8097194,51.1724403 L56.8097194,40.7747525 L15.9226944,40.7747525 Z" id="Path-72-Copy" fill="#F47470"></path>
                                <path d="M0.661827958,22.500376 C7.15512905,24.3946379 11.4686288,25.9593988 13.6023272,27.1946587 C16.2694501,27.1946587 30.639664,27.1946587 56.7129687,27.1946587 L56.8097194,22.500376 L0.661827958,22.500376 Z" id="Path-73" fill="#F05049"></path>
                                <rect id="Rectangle" fill="#F47470" x="48.8083504" y="51.9678218" width="16.0027379" height="28.7821782"></rect>
                                <rect id="Rectangle-Copy-46" fill="#F47470" x="13.6023272" y="51.9678218" width="16.0027379" height="28.7821782"></rect>
                                <rect id="Rectangle" fill="#FFAAA7" x="17.6030116" y="27.1831683" width="39.2067077" height="10.3935644"></rect>
                                <rect id="Rectangle" fill="#F47470" x="13.6023272" y="51.1683168" width="43.2073922" height="9.59405941"></rect>
                                <path d="M4.01083938,51.1724403 C9.33831538,52.3523484 12.535478,53.4282829 13.6023272,54.4002439 C14.8862394,54.4002439 29.2887034,54.4002439 56.8097194,54.4002439 L56.8097194,51.1724403 L4.01083938,51.1724403 Z" id="Path-74" fill="#E34840"></path>
                            </g>
                            <g id="Group-26-Copy" transform="translate(84.414442, 40.375000) scale(-1, 1) translate(-84.414442, -40.375000) translate(56.009582, 0.000000)">
                                <path d="M15.202601,0.369665859 C15.6438196,9.08662439 10.7968953,15.8338672 0.661827958,20.6113943 C0.661827958,21.2796625 0.661827958,21.9093231 0.661827958,22.500376 L56.7129687,22.3861386 L56.7129687,0.369665859 L15.202601,0.369665859 Z" id="Path-72" fill="#F47470"></path>
                                <rect id="Rectangle" fill="#F05049" x="13.6023272" y="27.1831683" width="43.2073922" height="33.5792079"></rect>
                                <path d="M15.9226944,40.7747525 C14.8224724,44.5051335 10.8518541,47.2179344 4.01083938,48.9131552 C4.01083938,49.2270037 4.01083938,49.9800987 4.01083938,51.1724403 L56.8097194,51.1724403 L56.8097194,40.7747525 L15.9226944,40.7747525 Z" id="Path-72-Copy" fill="#F47470"></path>
                                <path d="M0.661827958,22.500376 C7.15512905,24.3946379 11.4686288,25.9593988 13.6023272,27.1946587 C16.2694501,27.1946587 30.639664,27.1946587 56.7129687,27.1946587 L56.8097194,22.500376 L0.661827958,22.500376 Z" id="Path-73" fill="#F05049"></path>
                                <rect id="Rectangle-Copy-46" fill="#F47470" x="13.6023272" y="51.9678218" width="16.0027379" height="28.7821782"></rect>
                                <rect id="Rectangle" fill="#FFAAA7" x="17.6030116" y="27.1831683" width="39.2067077" height="10.3935644"></rect>
                                <rect id="Rectangle" fill="#F47470" x="13.6023272" y="51.1683168" width="43.2073922" height="9.59405941"></rect>
                                <path d="M4.01083938,51.1724403 C9.33831538,52.3523484 12.535478,53.4282829 13.6023272,54.4002439 C14.8862394,54.4002439 29.2887034,54.4002439 56.8097194,54.4002439 L56.8097194,51.1724403 L4.01083938,51.1724403 Z" id="Path-74" fill="#E34840"></path>
                            </g>
                        </g>
                    </g>
                    <path d="M0,260.97364 C210.67502,214.324547 374.592236,191 491.751647,191 C608.911059,191 747.372917,214.324547 907.137223,260.97364 L0,260.97364 Z" id="Path-62" fill="url(#linearGradient-12)" fill-rule="nonzero"></path>
                    <path d="M282,260.97364 C492.67502,192.991213 656.592236,159 773.751647,159 C890.911059,159 1029.37292,192.991213 1189.13722,260.97364 L282,260.97364 Z" id="Path-62-Copy" fill="url(#linearGradient-13)" fill-rule="nonzero"></path>
                    <path d="M1206,260.97364 C1416.67502,192.991213 1580.59224,159 1697.75165,159 C1814.91106,159 1953.37292,192.991213 2113.13722,260.97364 L1206,260.97364 Z" id="Path-62-Copy-3" fill="url(#linearGradient-13)" fill-rule="nonzero"></path>
                    <rect id="Rectangle" fill="#FCF2F2" fill-rule="nonzero" x="0" y="261" width="2113" height="309"></rect>
                </g>
            </g>
        </g>
    </g>
</svg>